<?xml version="1.0" encoding="utf-8" standalone="no"?>
<!DOCTYPE svg PUBLIC "-//W3C//DTD SVG 1.1//EN"
  "http://www.w3.org/Graphics/SVG/1.1/DTD/svg11.dtd">
<svg xmlns:xlink="http://www.w3.org/1999/xlink" width="460.8pt" height="345.6pt" viewBox="0 0 460.8 345.6" xmlns="http://www.w3.org/2000/svg" version="1.1">
 <metadata>
  <rdf:RDF xmlns:dc="http://purl.org/dc/elements/1.1/" xmlns:cc="http://creativecommons.org/ns#" xmlns:rdf="http://www.w3.org/1999/02/22-rdf-syntax-ns#">
   <cc:Work>
    <dc:type rdf:resource="http://purl.org/dc/dcmitype/StillImage"/>
    <dc:date>2025-12-28T10:33:33.948952</dc:date>
    <dc:format>image/svg+xml</dc:format>
    <dc:creator>
     <cc:Agent>
      <dc:title>Matplotlib v3.10.8, https://matplotlib.org/</dc:title>
     </cc:Agent>
    </dc:creator>
   </cc:Work>
  </rdf:RDF>
 </metadata>
 <defs>
  <style type="text/css">*{stroke-linejoin: round; stroke-linecap: butt}</style>
 </defs>
 <g id="figure_1">
  <g id="patch_1">
   <path d="M 0 345.6 
L 460.8 345.6 
L 460.8 0 
L 0 0 
z
" style="fill: #ffffff"/>
  </g>
  <g id="axes_1">
   <g id="patch_2">
    <path d="M 57.6 307.584 
L 414.72 307.584 
L 414.72 41.472 
L 57.6 41.472 
z
" style="fill: #ffffff"/>
   </g>
   <g id="FillBetweenPolyCollection_1"/>
   <g id="FillBetweenPolyCollection_2"/>
   <g id="FillBetweenPolyCollection_3"/>
   <g id="FillBetweenPolyCollection_4"/>
   <g id="FillBetweenPolyCollection_5"/>
   <g id="matplotlib.axis_1">
    <g id="xtick_1">
     <g id="line2d_1">
      <path d="M 73.832727 307.584 
L 73.832727 41.472 
" clip-path="url(#pcfa674bc0a)" style="fill: none; stroke: #b0b0b0; stroke-opacity: 0.3; stroke-width: 0.8; stroke-linecap: square"/>
     </g>
     <g id="line2d_2">
      <defs>
       <path id="ma89dea423d" d="M 0 0 
L 0 3.5 
" style="stroke: #000000; stroke-width: 0.8"/>
      </defs>
      <g>
       <use xlink:href="#ma89dea423d" x="73.832727" y="307.584" style="stroke: #000000; stroke-width: 0.8"/>
      </g>
     </g>
     <g id="text_1">
      <!-- 0.0 -->
      <g transform="translate(65.881165 322.182437) scale(0.1 -0.1)">
       <defs>
        <path id="DejaVuSans-30" d="M 2034 4250 
Q 1547 4250 1301 3770 
Q 1056 3291 1056 2328 
Q 1056 1369 1301 889 
Q 1547 409 2034 409 
Q 2525 409 2770 889 
Q 3016 1369 3016 2328 
Q 3016 3291 2770 3770 
Q 2525 4250 2034 4250 
z
M 2034 4750 
Q 2819 4750 3233 4129 
Q 3647 3509 3647 2328 
Q 3647 1150 3233 529 
Q 2819 -91 2034 -91 
Q 1250 -91 836 529 
Q 422 1150 422 2328 
Q 422 3509 836 4129 
Q 1250 4750 2034 4750 
z
" transform="scale(0.015625)"/>
        <path id="DejaVuSans-2e" d="M 684 794 
L 1344 794 
L 1344 0 
L 684 0 
L 684 794 
z
" transform="scale(0.015625)"/>
       </defs>
       <use xlink:href="#DejaVuSans-30"/>
       <use xlink:href="#DejaVuSans-2e" transform="translate(63.623047 0)"/>
       <use xlink:href="#DejaVuSans-30" transform="translate(95.410156 0)"/>
      </g>
     </g>
    </g>
    <g id="xtick_2">
     <g id="line2d_3">
      <path d="M 138.763636 307.584 
L 138.763636 41.472 
" clip-path="url(#pcfa674bc0a)" style="fill: none; stroke: #b0b0b0; stroke-opacity: 0.3; stroke-width: 0.8; stroke-linecap: square"/>
     </g>
     <g id="line2d_4">
      <g>
       <use xlink:href="#ma89dea423d" x="138.763636" y="307.584" style="stroke: #000000; stroke-width: 0.8"/>
      </g>
     </g>
     <g id="text_2">
      <!-- 0.2 -->
      <g transform="translate(130.812074 322.182437) scale(0.1 -0.1)">
       <defs>
        <path id="DejaVuSans-32" d="M 1228 531 
L 3431 531 
L 3431 0 
L 469 0 
L 469 531 
Q 828 903 1448 1529 
Q 2069 2156 2228 2338 
Q 2531 2678 2651 2914 
Q 2772 3150 2772 3378 
Q 2772 3750 2511 3984 
Q 2250 4219 1831 4219 
Q 1534 4219 1204 4116 
Q 875 4013 500 3803 
L 500 4441 
Q 881 4594 1212 4672 
Q 1544 4750 1819 4750 
Q 2544 4750 2975 4387 
Q 3406 4025 3406 3419 
Q 3406 3131 3298 2873 
Q 3191 2616 2906 2266 
Q 2828 2175 2409 1742 
Q 1991 1309 1228 531 
z
" transform="scale(0.015625)"/>
       </defs>
       <use xlink:href="#DejaVuSans-30"/>
       <use xlink:href="#DejaVuSans-2e" transform="translate(63.623047 0)"/>
       <use xlink:href="#DejaVuSans-32" transform="translate(95.410156 0)"/>
      </g>
     </g>
    </g>
    <g id="xtick_3">
     <g id="line2d_5">
      <path d="M 203.694545 307.584 
L 203.694545 41.472 
" clip-path="url(#pcfa674bc0a)" style="fill: none; stroke: #b0b0b0; stroke-opacity: 0.3; stroke-width: 0.8; stroke-linecap: square"/>
     </g>
     <g id="line2d_6">
      <g>
       <use xlink:href="#ma89dea423d" x="203.694545" y="307.584" style="stroke: #000000; stroke-width: 0.8"/>
      </g>
     </g>
     <g id="text_3">
      <!-- 0.4 -->
      <g transform="translate(195.742983 322.182437) scale(0.1 -0.1)">
       <defs>
        <path id="DejaVuSans-34" d="M 2419 4116 
L 825 1625 
L 2419 1625 
L 2419 4116 
z
M 2253 4666 
L 3047 4666 
L 3047 1625 
L 3713 1625 
L 3713 1100 
L 3047 1100 
L 3047 0 
L 2419 0 
L 2419 1100 
L 313 1100 
L 313 1709 
L 2253 4666 
z
" transform="scale(0.015625)"/>
       </defs>
       <use xlink:href="#DejaVuSans-30"/>
       <use xlink:href="#DejaVuSans-2e" transform="translate(63.623047 0)"/>
       <use xlink:href="#DejaVuSans-34" transform="translate(95.410156 0)"/>
      </g>
     </g>
    </g>
    <g id="xtick_4">
     <g id="line2d_7">
      <path d="M 268.625455 307.584 
L 268.625455 41.472 
" clip-path="url(#pcfa674bc0a)" style="fill: none; stroke: #b0b0b0; stroke-opacity: 0.3; stroke-width: 0.8; stroke-linecap: square"/>
     </g>
     <g id="line2d_8">
      <g>
       <use xlink:href="#ma89dea423d" x="268.625455" y="307.584" style="stroke: #000000; stroke-width: 0.8"/>
      </g>
     </g>
     <g id="text_4">
      <!-- 0.6 -->
      <g transform="translate(260.673892 322.182437) scale(0.1 -0.1)">
       <defs>
        <path id="DejaVuSans-36" d="M 2113 2584 
Q 1688 2584 1439 2293 
Q 1191 2003 1191 1497 
Q 1191 994 1439 701 
Q 1688 409 2113 409 
Q 2538 409 2786 701 
Q 3034 994 3034 1497 
Q 3034 2003 2786 2293 
Q 2538 2584 2113 2584 
z
M 3366 4563 
L 3366 3988 
Q 3128 4100 2886 4159 
Q 2644 4219 2406 4219 
Q 1781 4219 1451 3797 
Q 1122 3375 1075 2522 
Q 1259 2794 1537 2939 
Q 1816 3084 2150 3084 
Q 2853 3084 3261 2657 
Q 3669 2231 3669 1497 
Q 3669 778 3244 343 
Q 2819 -91 2113 -91 
Q 1303 -91 875 529 
Q 447 1150 447 2328 
Q 447 3434 972 4092 
Q 1497 4750 2381 4750 
Q 2619 4750 2861 4703 
Q 3103 4656 3366 4563 
z
" transform="scale(0.015625)"/>
       </defs>
       <use xlink:href="#DejaVuSans-30"/>
       <use xlink:href="#DejaVuSans-2e" transform="translate(63.623047 0)"/>
       <use xlink:href="#DejaVuSans-36" transform="translate(95.410156 0)"/>
      </g>
     </g>
    </g>
    <g id="xtick_5">
     <g id="line2d_9">
      <path d="M 333.556364 307.584 
L 333.556364 41.472 
" clip-path="url(#pcfa674bc0a)" style="fill: none; stroke: #b0b0b0; stroke-opacity: 0.3; stroke-width: 0.8; stroke-linecap: square"/>
     </g>
     <g id="line2d_10">
      <g>
       <use xlink:href="#ma89dea423d" x="333.556364" y="307.584" style="stroke: #000000; stroke-width: 0.8"/>
      </g>
     </g>
     <g id="text_5">
      <!-- 0.8 -->
      <g transform="translate(325.604801 322.182437) scale(0.1 -0.1)">
       <defs>
        <path id="DejaVuSans-38" d="M 2034 2216 
Q 1584 2216 1326 1975 
Q 1069 1734 1069 1313 
Q 1069 891 1326 650 
Q 1584 409 2034 409 
Q 2484 409 2743 651 
Q 3003 894 3003 1313 
Q 3003 1734 2745 1975 
Q 2488 2216 2034 2216 
z
M 1403 2484 
Q 997 2584 770 2862 
Q 544 3141 544 3541 
Q 544 4100 942 4425 
Q 1341 4750 2034 4750 
Q 2731 4750 3128 4425 
Q 3525 4100 3525 3541 
Q 3525 3141 3298 2862 
Q 3072 2584 2669 2484 
Q 3125 2378 3379 2068 
Q 3634 1759 3634 1313 
Q 3634 634 3220 271 
Q 2806 -91 2034 -91 
Q 1263 -91 848 271 
Q 434 634 434 1313 
Q 434 1759 690 2068 
Q 947 2378 1403 2484 
z
M 1172 3481 
Q 1172 3119 1398 2916 
Q 1625 2713 2034 2713 
Q 2441 2713 2670 2916 
Q 2900 3119 2900 3481 
Q 2900 3844 2670 4047 
Q 2441 4250 2034 4250 
Q 1625 4250 1398 4047 
Q 1172 3844 1172 3481 
z
" transform="scale(0.015625)"/>
       </defs>
       <use xlink:href="#DejaVuSans-30"/>
       <use xlink:href="#DejaVuSans-2e" transform="translate(63.623047 0)"/>
       <use xlink:href="#DejaVuSans-38" transform="translate(95.410156 0)"/>
      </g>
     </g>
    </g>
    <g id="xtick_6">
     <g id="line2d_11">
      <path d="M 398.487273 307.584 
L 398.487273 41.472 
" clip-path="url(#pcfa674bc0a)" style="fill: none; stroke: #b0b0b0; stroke-opacity: 0.3; stroke-width: 0.8; stroke-linecap: square"/>
     </g>
     <g id="line2d_12">
      <g>
       <use xlink:href="#ma89dea423d" x="398.487273" y="307.584" style="stroke: #000000; stroke-width: 0.8"/>
      </g>
     </g>
     <g id="text_6">
      <!-- 1.0 -->
      <g transform="translate(390.53571 322.182437) scale(0.1 -0.1)">
       <defs>
        <path id="DejaVuSans-31" d="M 794 531 
L 1825 531 
L 1825 4091 
L 703 3866 
L 703 4441 
L 1819 4666 
L 2450 4666 
L 2450 531 
L 3481 531 
L 3481 0 
L 794 0 
L 794 531 
z
" transform="scale(0.015625)"/>
       </defs>
       <use xlink:href="#DejaVuSans-31"/>
       <use xlink:href="#DejaVuSans-2e" transform="translate(63.623047 0)"/>
       <use xlink:href="#DejaVuSans-30" transform="translate(95.410156 0)"/>
      </g>
     </g>
    </g>
    <g id="text_7">
     <!-- Time -->
     <g transform="translate(223.926406 335.860562) scale(0.1 -0.1)">
      <defs>
       <path id="DejaVuSans-54" d="M -19 4666 
L 3928 4666 
L 3928 4134 
L 2272 4134 
L 2272 0 
L 1638 0 
L 1638 4134 
L -19 4134 
L -19 4666 
z
" transform="scale(0.015625)"/>
       <path id="DejaVuSans-69" d="M 603 3500 
L 1178 3500 
L 1178 0 
L 603 0 
L 603 3500 
z
M 603 4863 
L 1178 4863 
L 1178 4134 
L 603 4134 
L 603 4863 
z
" transform="scale(0.015625)"/>
       <path id="DejaVuSans-6d" d="M 3328 2828 
Q 3544 3216 3844 3400 
Q 4144 3584 4550 3584 
Q 5097 3584 5394 3201 
Q 5691 2819 5691 2113 
L 5691 0 
L 5113 0 
L 5113 2094 
Q 5113 2597 4934 2840 
Q 4756 3084 4391 3084 
Q 3944 3084 3684 2787 
Q 3425 2491 3425 1978 
L 3425 0 
L 2847 0 
L 2847 2094 
Q 2847 2600 2669 2842 
Q 2491 3084 2119 3084 
Q 1678 3084 1418 2786 
Q 1159 2488 1159 1978 
L 1159 0 
L 581 0 
L 581 3500 
L 1159 3500 
L 1159 2956 
Q 1356 3278 1631 3431 
Q 1906 3584 2284 3584 
Q 2666 3584 2933 3390 
Q 3200 3197 3328 2828 
z
" transform="scale(0.015625)"/>
       <path id="DejaVuSans-65" d="M 3597 1894 
L 3597 1613 
L 953 1613 
Q 991 1019 1311 708 
Q 1631 397 2203 397 
Q 2534 397 2845 478 
Q 3156 559 3463 722 
L 3463 178 
Q 3153 47 2828 -22 
Q 2503 -91 2169 -91 
Q 1331 -91 842 396 
Q 353 884 353 1716 
Q 353 2575 817 3079 
Q 1281 3584 2069 3584 
Q 2775 3584 3186 3129 
Q 3597 2675 3597 1894 
z
M 3022 2063 
Q 3016 2534 2758 2815 
Q 2500 3097 2075 3097 
Q 1594 3097 1305 2825 
Q 1016 2553 972 2059 
L 3022 2063 
z
" transform="scale(0.015625)"/>
      </defs>
      <use xlink:href="#DejaVuSans-54"/>
      <use xlink:href="#DejaVuSans-69" transform="translate(57.958984 0)"/>
      <use xlink:href="#DejaVuSans-6d" transform="translate(85.742188 0)"/>
      <use xlink:href="#DejaVuSans-65" transform="translate(183.154297 0)"/>
     </g>
    </g>
   </g>
   <g id="matplotlib.axis_2">
    <g id="ytick_1">
     <g id="line2d_13">
      <path d="M 57.6 304.972789 
L 414.72 304.972789 
" clip-path="url(#pcfa674bc0a)" style="fill: none; stroke: #b0b0b0; stroke-opacity: 0.3; stroke-width: 0.8; stroke-linecap: square"/>
     </g>
     <g id="line2d_14">
      <defs>
       <path id="m019620856b" d="M 0 0 
L -3.5 0 
" style="stroke: #000000; stroke-width: 0.8"/>
      </defs>
      <g>
       <use xlink:href="#m019620856b" x="57.6" y="304.972789" style="stroke: #000000; stroke-width: 0.8"/>
      </g>
     </g>
     <g id="text_8">
      <!-- 0.1 -->
      <g transform="translate(34.696875 308.772008) scale(0.1 -0.1)">
       <use xlink:href="#DejaVuSans-30"/>
       <use xlink:href="#DejaVuSans-2e" transform="translate(63.623047 0)"/>
       <use xlink:href="#DejaVuSans-31" transform="translate(95.410156 0)"/>
      </g>
     </g>
    </g>
    <g id="ytick_2">
     <g id="line2d_15">
      <path d="M 57.6 269.111877 
L 414.72 269.111877 
" clip-path="url(#pcfa674bc0a)" style="fill: none; stroke: #b0b0b0; stroke-opacity: 0.3; stroke-width: 0.8; stroke-linecap: square"/>
     </g>
     <g id="line2d_16">
      <g>
       <use xlink:href="#m019620856b" x="57.6" y="269.111877" style="stroke: #000000; stroke-width: 0.8"/>
      </g>
     </g>
     <g id="text_9">
      <!-- 0.2 -->
      <g transform="translate(34.696875 272.911095) scale(0.1 -0.1)">
       <use xlink:href="#DejaVuSans-30"/>
       <use xlink:href="#DejaVuSans-2e" transform="translate(63.623047 0)"/>
       <use xlink:href="#DejaVuSans-32" transform="translate(95.410156 0)"/>
      </g>
     </g>
    </g>
    <g id="ytick_3">
     <g id="line2d_17">
      <path d="M 57.6 233.250964 
L 414.72 233.250964 
" clip-path="url(#pcfa674bc0a)" style="fill: none; stroke: #b0b0b0; stroke-opacity: 0.3; stroke-width: 0.8; stroke-linecap: square"/>
     </g>
     <g id="line2d_18">
      <g>
       <use xlink:href="#m019620856b" x="57.6" y="233.250964" style="stroke: #000000; stroke-width: 0.8"/>
      </g>
     </g>
     <g id="text_10">
      <!-- 0.3 -->
      <g transform="translate(34.696875 237.050183) scale(0.1 -0.1)">
       <defs>
        <path id="DejaVuSans-33" d="M 2597 2516 
Q 3050 2419 3304 2112 
Q 3559 1806 3559 1356 
Q 3559 666 3084 287 
Q 2609 -91 1734 -91 
Q 1441 -91 1130 -33 
Q 819 25 488 141 
L 488 750 
Q 750 597 1062 519 
Q 1375 441 1716 441 
Q 2309 441 2620 675 
Q 2931 909 2931 1356 
Q 2931 1769 2642 2001 
Q 2353 2234 1838 2234 
L 1294 2234 
L 1294 2753 
L 1863 2753 
Q 2328 2753 2575 2939 
Q 2822 3125 2822 3475 
Q 2822 3834 2567 4026 
Q 2313 4219 1838 4219 
Q 1578 4219 1281 4162 
Q 984 4106 628 3988 
L 628 4550 
Q 988 4650 1302 4700 
Q 1616 4750 1894 4750 
Q 2613 4750 3031 4423 
Q 3450 4097 3450 3541 
Q 3450 3153 3228 2886 
Q 3006 2619 2597 2516 
z
" transform="scale(0.015625)"/>
       </defs>
       <use xlink:href="#DejaVuSans-30"/>
       <use xlink:href="#DejaVuSans-2e" transform="translate(63.623047 0)"/>
       <use xlink:href="#DejaVuSans-33" transform="translate(95.410156 0)"/>
      </g>
     </g>
    </g>
    <g id="ytick_4">
     <g id="line2d_19">
      <path d="M 57.6 197.390052 
L 414.72 197.390052 
" clip-path="url(#pcfa674bc0a)" style="fill: none; stroke: #b0b0b0; stroke-opacity: 0.3; stroke-width: 0.8; stroke-linecap: square"/>
     </g>
     <g id="line2d_20">
      <g>
       <use xlink:href="#m019620856b" x="57.6" y="197.390052" style="stroke: #000000; stroke-width: 0.8"/>
      </g>
     </g>
     <g id="text_11">
      <!-- 0.4 -->
      <g transform="translate(34.696875 201.18927) scale(0.1 -0.1)">
       <use xlink:href="#DejaVuSans-30"/>
       <use xlink:href="#DejaVuSans-2e" transform="translate(63.623047 0)"/>
       <use xlink:href="#DejaVuSans-34" transform="translate(95.410156 0)"/>
      </g>
     </g>
    </g>
    <g id="ytick_5">
     <g id="line2d_21">
      <path d="M 57.6 161.529139 
L 414.72 161.529139 
" clip-path="url(#pcfa674bc0a)" style="fill: none; stroke: #b0b0b0; stroke-opacity: 0.3; stroke-width: 0.8; stroke-linecap: square"/>
     </g>
     <g id="line2d_22">
      <g>
       <use xlink:href="#m019620856b" x="57.6" y="161.529139" style="stroke: #000000; stroke-width: 0.8"/>
      </g>
     </g>
     <g id="text_12">
      <!-- 0.5 -->
      <g transform="translate(34.696875 165.328358) scale(0.1 -0.1)">
       <defs>
        <path id="DejaVuSans-35" d="M 691 4666 
L 3169 4666 
L 3169 4134 
L 1269 4134 
L 1269 2991 
Q 1406 3038 1543 3061 
Q 1681 3084 1819 3084 
Q 2600 3084 3056 2656 
Q 3513 2228 3513 1497 
Q 3513 744 3044 326 
Q 2575 -91 1722 -91 
Q 1428 -91 1123 -41 
Q 819 9 494 109 
L 494 744 
Q 775 591 1075 516 
Q 1375 441 1709 441 
Q 2250 441 2565 725 
Q 2881 1009 2881 1497 
Q 2881 1984 2565 2268 
Q 2250 2553 1709 2553 
Q 1456 2553 1204 2497 
Q 953 2441 691 2322 
L 691 4666 
z
" transform="scale(0.015625)"/>
       </defs>
       <use xlink:href="#DejaVuSans-30"/>
       <use xlink:href="#DejaVuSans-2e" transform="translate(63.623047 0)"/>
       <use xlink:href="#DejaVuSans-35" transform="translate(95.410156 0)"/>
      </g>
     </g>
    </g>
    <g id="ytick_6">
     <g id="line2d_23">
      <path d="M 57.6 125.668226 
L 414.72 125.668226 
" clip-path="url(#pcfa674bc0a)" style="fill: none; stroke: #b0b0b0; stroke-opacity: 0.3; stroke-width: 0.8; stroke-linecap: square"/>
     </g>
     <g id="line2d_24">
      <g>
       <use xlink:href="#m019620856b" x="57.6" y="125.668226" style="stroke: #000000; stroke-width: 0.8"/>
      </g>
     </g>
     <g id="text_13">
      <!-- 0.6 -->
      <g transform="translate(34.696875 129.467445) scale(0.1 -0.1)">
       <use xlink:href="#DejaVuSans-30"/>
       <use xlink:href="#DejaVuSans-2e" transform="translate(63.623047 0)"/>
       <use xlink:href="#DejaVuSans-36" transform="translate(95.410156 0)"/>
      </g>
     </g>
    </g>
    <g id="ytick_7">
     <g id="line2d_25">
      <path d="M 57.6 89.807314 
L 414.72 89.807314 
" clip-path="url(#pcfa674bc0a)" style="fill: none; stroke: #b0b0b0; stroke-opacity: 0.3; stroke-width: 0.8; stroke-linecap: square"/>
     </g>
     <g id="line2d_26">
      <g>
       <use xlink:href="#m019620856b" x="57.6" y="89.807314" style="stroke: #000000; stroke-width: 0.8"/>
      </g>
     </g>
     <g id="text_14">
      <!-- 0.7 -->
      <g transform="translate(34.696875 93.606533) scale(0.1 -0.1)">
       <defs>
        <path id="DejaVuSans-37" d="M 525 4666 
L 3525 4666 
L 3525 4397 
L 1831 0 
L 1172 0 
L 2766 4134 
L 525 4134 
L 525 4666 
z
" transform="scale(0.015625)"/>
       </defs>
       <use xlink:href="#DejaVuSans-30"/>
       <use xlink:href="#DejaVuSans-2e" transform="translate(63.623047 0)"/>
       <use xlink:href="#DejaVuSans-37" transform="translate(95.410156 0)"/>
      </g>
     </g>
    </g>
    <g id="ytick_8">
     <g id="line2d_27">
      <path d="M 57.6 53.946401 
L 414.72 53.946401 
" clip-path="url(#pcfa674bc0a)" style="fill: none; stroke: #b0b0b0; stroke-opacity: 0.3; stroke-width: 0.8; stroke-linecap: square"/>
     </g>
     <g id="line2d_28">
      <g>
       <use xlink:href="#m019620856b" x="57.6" y="53.946401" style="stroke: #000000; stroke-width: 0.8"/>
      </g>
     </g>
     <g id="text_15">
      <!-- 0.8 -->
      <g transform="translate(34.696875 57.74562) scale(0.1 -0.1)">
       <use xlink:href="#DejaVuSans-30"/>
       <use xlink:href="#DejaVuSans-2e" transform="translate(63.623047 0)"/>
       <use xlink:href="#DejaVuSans-38" transform="translate(95.410156 0)"/>
      </g>
     </g>
    </g>
    <g id="text_16">
     <!-- Volatility -->
     <g transform="translate(28.617187 196.120187) rotate(-90) scale(0.1 -0.1)">
      <defs>
       <path id="DejaVuSans-56" d="M 1831 0 
L 50 4666 
L 709 4666 
L 2188 738 
L 3669 4666 
L 4325 4666 
L 2547 0 
L 1831 0 
z
" transform="scale(0.015625)"/>
       <path id="DejaVuSans-6f" d="M 1959 3097 
Q 1497 3097 1228 2736 
Q 959 2375 959 1747 
Q 959 1119 1226 758 
Q 1494 397 1959 397 
Q 2419 397 2687 759 
Q 2956 1122 2956 1747 
Q 2956 2369 2687 2733 
Q 2419 3097 1959 3097 
z
M 1959 3584 
Q 2709 3584 3137 3096 
Q 3566 2609 3566 1747 
Q 3566 888 3137 398 
Q 2709 -91 1959 -91 
Q 1206 -91 779 398 
Q 353 888 353 1747 
Q 353 2609 779 3096 
Q 1206 3584 1959 3584 
z
" transform="scale(0.015625)"/>
       <path id="DejaVuSans-6c" d="M 603 4863 
L 1178 4863 
L 1178 0 
L 603 0 
L 603 4863 
z
" transform="scale(0.015625)"/>
       <path id="DejaVuSans-61" d="M 2194 1759 
Q 1497 1759 1228 1600 
Q 959 1441 959 1056 
Q 959 750 1161 570 
Q 1363 391 1709 391 
Q 2188 391 2477 730 
Q 2766 1069 2766 1631 
L 2766 1759 
L 2194 1759 
z
M 3341 1997 
L 3341 0 
L 2766 0 
L 2766 531 
Q 2569 213 2275 61 
Q 1981 -91 1556 -91 
Q 1019 -91 701 211 
Q 384 513 384 1019 
Q 384 1609 779 1909 
Q 1175 2209 1959 2209 
L 2766 2209 
L 2766 2266 
Q 2766 2663 2505 2880 
Q 2244 3097 1772 3097 
Q 1472 3097 1187 3025 
Q 903 2953 641 2809 
L 641 3341 
Q 956 3463 1253 3523 
Q 1550 3584 1831 3584 
Q 2591 3584 2966 3190 
Q 3341 2797 3341 1997 
z
" transform="scale(0.015625)"/>
       <path id="DejaVuSans-74" d="M 1172 4494 
L 1172 3500 
L 2356 3500 
L 2356 3053 
L 1172 3053 
L 1172 1153 
Q 1172 725 1289 603 
Q 1406 481 1766 481 
L 2356 481 
L 2356 0 
L 1766 0 
Q 1100 0 847 248 
Q 594 497 594 1153 
L 594 3053 
L 172 3053 
L 172 3500 
L 594 3500 
L 594 4494 
L 1172 4494 
z
" transform="scale(0.015625)"/>
       <path id="DejaVuSans-79" d="M 2059 -325 
Q 1816 -950 1584 -1140 
Q 1353 -1331 966 -1331 
L 506 -1331 
L 506 -850 
L 844 -850 
Q 1081 -850 1212 -737 
Q 1344 -625 1503 -206 
L 1606 56 
L 191 3500 
L 800 3500 
L 1894 763 
L 2988 3500 
L 3597 3500 
L 2059 -325 
z
" transform="scale(0.015625)"/>
      </defs>
      <use xlink:href="#DejaVuSans-56"/>
      <use xlink:href="#DejaVuSans-6f" transform="translate(60.658203 0)"/>
      <use xlink:href="#DejaVuSans-6c" transform="translate(121.839844 0)"/>
      <use xlink:href="#DejaVuSans-61" transform="translate(149.623047 0)"/>
      <use xlink:href="#DejaVuSans-74" transform="translate(210.902344 0)"/>
      <use xlink:href="#DejaVuSans-69" transform="translate(250.111328 0)"/>
      <use xlink:href="#DejaVuSans-6c" transform="translate(277.894531 0)"/>
      <use xlink:href="#DejaVuSans-69" transform="translate(305.677734 0)"/>
      <use xlink:href="#DejaVuSans-74" transform="translate(333.460938 0)"/>
      <use xlink:href="#DejaVuSans-79" transform="translate(372.669922 0)"/>
     </g>
    </g>
   </g>
   <g id="line2d_29">
    <path d="M 73.832727 161.529139 
L 75.121039 155.645878 
L 76.409351 166.739329 
L 77.697662 167.039068 
L 78.985974 157.23906 
L 80.274286 146.357792 
L 81.562597 139.526229 
L 82.850909 137.588528 
L 84.139221 159.507503 
L 85.427532 160.847381 
L 86.715844 154.1582 
L 88.004156 150.189825 
L 89.292468 168.886503 
L 90.580779 172.825971 
L 91.869091 165.5523 
L 93.157403 175.599766 
L 94.445714 176.801375 
L 95.734026 172.988567 
L 97.022338 177.342488 
L 98.310649 169.031561 
L 99.598961 164.991383 
L 100.887273 158.991038 
L 102.175584 149.720171 
L 103.463896 159.385325 
L 104.752208 182.730289 
L 106.040519 182.284606 
L 107.328831 180.433238 
L 108.617143 180.391391 
L 109.905455 174.853888 
L 111.193766 167.663943 
L 112.482078 179.975177 
L 113.77039 177.330906 
L 115.058701 176.591783 
L 116.347013 188.24424 
L 117.635325 191.208653 
L 118.923636 185.630302 
L 120.211948 176.716082 
L 121.50026 183.71656 
L 122.788571 182.533838 
L 124.076883 188.832122 
L 125.365195 184.550152 
L 126.653506 186.724378 
L 127.941818 176.690127 
L 129.23013 199.947418 
L 130.518442 198.844039 
L 131.806753 196.931724 
L 133.095065 193.715461 
L 134.383377 216.760656 
L 135.671688 218.88059 
L 136.96 228.485442 
L 138.248312 224.743264 
L 139.536623 244.780733 
L 140.824935 227.883336 
L 142.113247 219.492891 
L 143.401558 233.209561 
L 144.68987 217.943693 
L 145.978182 196.851009 
L 147.266494 212.45748 
L 148.554805 207.928654 
L 149.843117 212.23794 
L 151.131429 220.489263 
L 152.41974 212.602057 
L 153.708052 213.997432 
L 154.996364 197.509398 
L 156.284675 201.545202 
L 157.572987 200.20095 
L 158.861299 204.159057 
L 160.14961 192.596211 
L 161.437922 195.815494 
L 162.726234 209.090061 
L 164.014545 235.483385 
L 165.302857 255.113783 
L 166.591169 267.826871 
L 167.879481 248.994594 
L 169.167792 239.7035 
L 170.456104 234.077334 
L 171.744416 238.350342 
L 173.032727 228.991838 
L 174.321039 211.737435 
L 175.609351 197.490534 
L 176.897662 202.234422 
L 178.185974 210.506193 
L 179.474286 223.37291 
L 180.762597 228.426029 
L 182.050909 242.527398 
L 183.339221 260.435286 
L 185.915844 250.776475 
L 187.204156 250.658109 
L 188.492468 243.055888 
L 189.780779 252.617023 
L 191.069091 248.951546 
L 192.357403 231.893137 
L 193.645714 233.255906 
L 194.934026 220.877479 
L 196.222338 216.95682 
L 197.510649 215.29963 
L 198.798961 227.274167 
L 200.087273 227.528665 
L 201.375584 235.504115 
L 202.663896 228.074556 
L 203.952208 225.544243 
L 205.240519 225.621819 
L 206.528831 227.738394 
L 207.817143 232.761462 
L 209.105455 233.884353 
L 210.393766 234.527635 
L 211.682078 250.367357 
L 212.97039 247.611486 
L 214.258701 243.632968 
L 215.547013 236.407401 
L 216.835325 235.013704 
L 218.123636 237.361985 
L 219.411948 247.91853 
L 220.70026 242.505358 
L 221.988571 233.429854 
L 223.276883 230.54075 
L 224.565195 239.542097 
L 225.853506 228.145923 
L 227.141818 242.358843 
L 228.43013 241.37545 
L 229.718442 246.782172 
L 231.006753 245.618732 
L 232.295065 269.569927 
L 233.583377 255.293255 
L 234.871688 243.077188 
L 236.16 246.135357 
L 237.448312 248.821413 
L 240.024935 224.100353 
L 241.313247 229.660965 
L 242.601558 223.752716 
L 243.88987 227.631357 
L 245.178182 222.143209 
L 246.466494 232.725659 
L 247.754805 236.411161 
L 249.043117 222.588121 
L 250.331429 230.192802 
L 251.61974 226.002521 
L 252.908052 215.080773 
L 254.196364 199.830671 
L 255.484675 206.071797 
L 256.772987 210.498982 
L 258.061299 203.761896 
L 259.34961 208.779783 
L 260.637922 196.978243 
L 261.926234 216.901778 
L 263.214545 217.02083 
L 264.502857 226.167762 
L 265.791169 226.290848 
L 267.079481 228.47406 
L 268.367792 224.178663 
L 269.656104 218.046534 
L 270.944416 213.217091 
L 272.232727 205.984185 
L 273.521039 198.06531 
L 274.809351 188.528785 
L 276.097662 191.948035 
L 277.385974 193.587925 
L 278.674286 183.01068 
L 279.962597 162.684555 
L 281.250909 171.567172 
L 282.539221 166.688658 
L 283.827532 175.854628 
L 285.115844 168.840721 
L 286.404156 161.043504 
L 287.692468 170.592341 
L 288.980779 165.385742 
L 290.269091 174.25918 
L 291.557403 186.722668 
L 292.845714 187.400748 
L 294.134026 183.980543 
L 296.710649 171.13772 
L 297.998961 168.229249 
L 299.287273 171.200372 
L 300.575584 162.814424 
L 301.863896 150.824863 
L 303.152208 156.323866 
L 304.440519 158.068911 
L 305.728831 158.802273 
L 307.017143 145.920785 
L 308.305455 159.286561 
L 309.593766 167.907878 
L 310.882078 179.811592 
L 312.17039 180.921466 
L 313.458701 183.590069 
L 314.747013 167.740085 
L 317.323636 182.682234 
L 318.611948 177.147652 
L 319.90026 191.595991 
L 321.188571 207.748481 
L 322.476883 198.053603 
L 323.765195 205.123459 
L 325.053506 200.323614 
L 326.341818 187.397545 
L 327.63013 183.007689 
L 328.918442 181.228415 
L 331.495065 195.970863 
L 332.783377 176.407891 
L 334.071688 172.415312 
L 335.36 185.038368 
L 336.648312 191.590801 
L 337.936623 194.459097 
L 339.224935 193.47066 
L 340.513247 190.149311 
L 341.801558 202.953191 
L 343.08987 204.383559 
L 344.378182 207.766821 
L 345.666494 202.484864 
L 346.954805 224.271964 
L 348.243117 217.592372 
L 349.531429 219.035074 
L 350.81974 209.828115 
L 352.108052 193.11038 
L 353.396364 186.897821 
L 354.684675 169.216344 
L 355.972987 162.93083 
L 357.261299 166.151746 
L 358.54961 171.615034 
L 361.126234 195.160674 
L 362.414545 192.254024 
L 363.702857 188.134668 
L 364.991169 171.989688 
L 366.279481 159.285565 
L 367.567792 171.168059 
L 368.856104 176.5791 
L 370.144416 178.636323 
L 371.432727 176.440749 
L 372.721039 189.279858 
L 374.009351 198.939515 
L 375.297662 186.260509 
L 376.585974 182.831736 
L 377.874286 165.279038 
L 379.162597 167.961369 
L 380.450909 158.170964 
L 381.739221 153.561143 
L 383.027532 154.049267 
L 384.315844 159.355066 
L 385.604156 158.268634 
L 386.892468 154.376246 
L 388.180779 142.363604 
L 389.469091 147.023326 
L 390.757403 152.300018 
L 392.045714 139.007026 
L 393.334026 112.758302 
L 394.622338 115.587041 
L 395.910649 103.900458 
L 397.198961 98.387386 
L 398.487273 124.70479 
L 398.487273 124.70479 
" clip-path="url(#pcfa674bc0a)" style="fill: none; stroke: #1f77b4; stroke-opacity: 0.6; stroke-width: 1.5; stroke-linecap: square"/>
   </g>
   <g id="line2d_30">
    <path d="M 73.832727 161.529139 
L 75.121039 160.07492 
L 76.409351 166.14872 
L 77.697662 163.008206 
L 78.985974 170.162377 
L 80.274286 164.524754 
L 81.562597 162.465642 
L 82.850909 180.63602 
L 84.139221 186.473523 
L 85.427532 191.682535 
L 86.715844 189.897438 
L 88.004156 197.170634 
L 89.292468 201.900339 
L 90.580779 214.797152 
L 91.869091 213.773271 
L 93.157403 210.955107 
L 94.445714 205.860762 
L 95.734026 200.164305 
L 97.022338 188.245147 
L 98.310649 181.461928 
L 99.598961 176.978742 
L 100.887273 173.061073 
L 102.175584 165.795743 
L 103.463896 168.130701 
L 104.752208 169.695343 
L 107.328831 158.154098 
L 108.617143 155.564535 
L 109.905455 158.281702 
L 111.193766 164.796609 
L 112.482078 159.408565 
L 113.77039 157.09824 
L 115.058701 183.398419 
L 116.347013 206.95318 
L 117.635325 211.567811 
L 118.923636 208.348196 
L 120.211948 207.668396 
L 121.50026 190.18176 
L 122.788571 165.973329 
L 124.076883 171.173895 
L 125.365195 163.25417 
L 126.653506 159.234728 
L 127.941818 161.666324 
L 129.23013 166.471591 
L 130.518442 157.836556 
L 131.806753 155.578899 
L 133.095065 152.789721 
L 134.383377 146.855931 
L 135.671688 148.084063 
L 136.96 166.182483 
L 138.248312 174.033367 
L 139.536623 178.688314 
L 140.824935 181.240929 
L 142.113247 186.630466 
L 143.401558 185.389991 
L 144.68987 210.279698 
L 145.978182 208.575914 
L 147.266494 190.69565 
L 148.554805 187.105868 
L 151.131429 215.514103 
L 152.41974 236.239186 
L 153.708052 241.933363 
L 154.996364 226.857995 
L 156.284675 229.040589 
L 157.572987 233.147003 
L 160.14961 217.955596 
L 161.437922 226.249855 
L 162.726234 222.990191 
L 164.014545 218.883846 
L 165.302857 211.903235 
L 166.591169 219.112117 
L 167.879481 227.940616 
L 169.167792 240.779265 
L 170.456104 235.869362 
L 171.744416 240.860927 
L 173.032727 230.97343 
L 174.321039 242.358475 
L 175.609351 235.461528 
L 176.897662 226.966813 
L 178.185974 228.132932 
L 179.474286 201.009586 
L 180.762597 188.910391 
L 182.050909 191.786828 
L 183.339221 191.106642 
L 184.627532 190.248836 
L 185.915844 193.426634 
L 187.204156 180.454434 
L 188.492468 174.866645 
L 189.780779 179.526115 
L 191.069091 174.176929 
L 192.357403 168.135396 
L 193.645714 151.721625 
L 194.934026 175.894159 
L 196.222338 163.73556 
L 197.510649 171.425515 
L 198.798961 172.365529 
L 201.375584 162.435446 
L 202.663896 154.247775 
L 203.952208 136.726466 
L 205.240519 124.112574 
L 206.528831 127.78314 
L 207.817143 124.114424 
L 209.105455 140.389209 
L 210.393766 144.529405 
L 211.682078 140.349141 
L 212.97039 142.749332 
L 214.258701 136.237925 
L 215.547013 112.538984 
L 216.835325 121.241834 
L 218.123636 123.036767 
L 219.411948 130.945715 
L 220.70026 123.47766 
L 221.988571 132.147732 
L 223.276883 134.687202 
L 224.565195 141.403473 
L 225.853506 135.744192 
L 227.141818 156.136651 
L 228.43013 163.733689 
L 229.718442 186.907647 
L 231.006753 204.208056 
L 232.295065 209.277752 
L 233.583377 213.46824 
L 234.871688 195.217298 
L 236.16 188.466759 
L 237.448312 196.762278 
L 238.736623 189.591325 
L 240.024935 193.617888 
L 241.313247 187.951068 
L 242.601558 188.060185 
L 243.88987 175.125696 
L 245.178182 160.786523 
L 246.466494 155.622172 
L 247.754805 157.91171 
L 249.043117 154.50401 
L 250.331429 174.641261 
L 251.61974 159.745501 
L 252.908052 172.175014 
L 254.196364 171.774767 
L 255.484675 153.183832 
L 256.772987 154.529209 
L 258.061299 159.488368 
L 259.34961 142.044517 
L 260.637922 160.041117 
L 261.926234 171.309539 
L 263.214545 173.341762 
L 264.502857 172.468367 
L 265.791169 171.824947 
L 267.079481 178.055009 
L 268.367792 174.073179 
L 269.656104 167.885346 
L 270.944416 147.146369 
L 272.232727 143.379482 
L 273.521039 131.327816 
L 274.809351 126.819841 
L 276.097662 117.075521 
L 277.385974 113.825348 
L 278.674286 133.651672 
L 279.962597 139.314772 
L 281.250909 129.751094 
L 282.539221 133.963707 
L 283.827532 137.618592 
L 285.115844 132.735753 
L 286.404156 133.936341 
L 287.692468 146.263293 
L 288.980779 168.048499 
L 290.269091 155.790915 
L 291.557403 147.951623 
L 292.845714 132.928553 
L 294.134026 120.790749 
L 295.422338 121.248297 
L 296.710649 112.18357 
L 297.998961 114.268591 
L 299.287273 124.347588 
L 300.575584 142.037927 
L 301.863896 140.304011 
L 303.152208 122.54501 
L 304.440519 122.651935 
L 305.728831 118.846485 
L 307.017143 119.543978 
L 308.305455 120.98367 
L 309.593766 112.876842 
L 310.882078 88.90153 
L 312.17039 77.124008 
L 313.458701 77.305209 
L 314.747013 59.65187 
L 316.035325 61.708668 
L 317.323636 59.246322 
L 318.611948 62.400918 
L 319.90026 53.568 
L 321.188571 56.436656 
L 322.476883 59.607959 
L 323.765195 73.014409 
L 325.053506 65.958288 
L 326.341818 75.171855 
L 327.63013 104.332851 
L 328.918442 112.834094 
L 330.206753 109.235091 
L 331.495065 116.943395 
L 332.783377 96.659622 
L 334.071688 122.267924 
L 335.36 117.761812 
L 336.648312 115.056778 
L 337.936623 126.21344 
L 339.224935 121.774956 
L 340.513247 136.903881 
L 341.801558 155.276289 
L 343.08987 147.835072 
L 344.378182 149.761639 
L 345.666494 139.353937 
L 346.954805 152.298209 
L 348.243117 155.273501 
L 349.531429 157.471432 
L 350.81974 133.74532 
L 352.108052 145.142475 
L 353.396364 143.759208 
L 354.684675 149.608759 
L 355.972987 130.969932 
L 357.261299 144.574603 
L 358.54961 142.808637 
L 359.837922 131.391122 
L 361.126234 129.608688 
L 362.414545 126.787526 
L 363.702857 139.296573 
L 364.991169 143.967071 
L 366.279481 140.981337 
L 367.567792 140.525121 
L 368.856104 135.327405 
L 370.144416 131.572869 
L 371.432727 135.739062 
L 372.721039 118.565134 
L 374.009351 105.900439 
L 375.297662 108.179068 
L 376.585974 113.120839 
L 377.874286 103.381297 
L 379.162597 90.127268 
L 380.450909 83.542048 
L 381.739221 88.888179 
L 383.027532 74.801138 
L 385.604156 88.565826 
L 386.892468 89.04809 
L 388.180779 97.960638 
L 389.469091 99.315947 
L 390.757403 91.904091 
L 392.045714 95.970491 
L 393.334026 107.761177 
L 394.622338 100.084873 
L 395.910649 84.121086 
L 397.198961 76.559137 
L 398.487273 77.667158 
L 398.487273 77.667158 
" clip-path="url(#pcfa674bc0a)" style="fill: none; stroke: #ff7f0e; stroke-opacity: 0.6; stroke-width: 1.5; stroke-linecap: square"/>
   </g>
   <g id="line2d_31">
    <path d="M 73.832727 161.529139 
L 75.121039 167.829272 
L 76.409351 150.951728 
L 77.697662 143.121941 
L 78.985974 151.561769 
L 80.274286 147.442331 
L 81.562597 153.541826 
L 84.139221 142.988834 
L 85.427532 153.470716 
L 86.715844 159.891227 
L 88.004156 153.338399 
L 89.292468 159.090516 
L 90.580779 148.331529 
L 91.869091 142.196196 
L 93.157403 142.963206 
L 94.445714 138.330084 
L 95.734026 134.755681 
L 97.022338 123.314727 
L 98.310649 125.020219 
L 99.598961 121.82192 
L 100.887273 108.26279 
L 102.175584 100.637943 
L 103.463896 113.881018 
L 104.752208 121.190744 
L 106.040519 121.595661 
L 107.328831 133.448027 
L 108.617143 120.629425 
L 109.905455 97.629305 
L 112.482078 93.528126 
L 113.77039 93.270308 
L 115.058701 103.65128 
L 116.347013 106.190249 
L 117.635325 105.809559 
L 118.923636 105.194047 
L 120.211948 106.26666 
L 121.50026 109.717291 
L 122.788571 122.003771 
L 124.076883 127.288253 
L 126.653506 146.097659 
L 127.941818 144.777482 
L 129.23013 143.227433 
L 130.518442 148.998112 
L 131.806753 130.186988 
L 133.095065 132.471127 
L 134.383377 132.481616 
L 135.671688 130.944431 
L 136.96 134.786203 
L 138.248312 140.166107 
L 139.536623 146.68656 
L 142.113247 141.064743 
L 143.401558 152.597503 
L 144.68987 152.431486 
L 145.978182 126.242598 
L 147.266494 125.962851 
L 148.554805 145.967708 
L 149.843117 136.34149 
L 151.131429 123.002371 
L 152.41974 141.134538 
L 153.708052 142.049357 
L 154.996364 126.46447 
L 156.284675 118.884331 
L 157.572987 120.412621 
L 158.861299 105.721674 
L 160.14961 120.401435 
L 161.437922 120.207405 
L 162.726234 123.410875 
L 164.014545 141.448055 
L 165.302857 134.806971 
L 166.591169 150.140847 
L 167.879481 156.459734 
L 169.167792 167.230015 
L 170.456104 173.321531 
L 171.744416 168.670593 
L 173.032727 161.281965 
L 175.609351 158.446199 
L 176.897662 153.82879 
L 178.185974 160.284577 
L 179.474286 140.896903 
L 180.762597 134.333518 
L 182.050909 123.902653 
L 183.339221 100.786907 
L 184.627532 92.590471 
L 185.915844 98.220981 
L 188.492468 89.57232 
L 189.780779 83.339894 
L 191.069091 84.937235 
L 192.357403 86.042873 
L 193.645714 95.196395 
L 194.934026 107.147086 
L 196.222338 126.911638 
L 197.510649 122.72567 
L 198.798961 124.677798 
L 200.087273 133.265725 
L 201.375584 124.78696 
L 202.663896 111.698025 
L 203.952208 111.511252 
L 205.240519 122.551372 
L 206.528831 119.215526 
L 207.817143 124.493005 
L 209.105455 137.263341 
L 211.682078 121.385678 
L 212.97039 129.00327 
L 214.258701 122.365533 
L 215.547013 140.618679 
L 216.835325 136.610561 
L 218.123636 123.280573 
L 219.411948 119.408331 
L 220.70026 127.857595 
L 221.988571 127.987264 
L 223.276883 126.655679 
L 224.565195 131.999449 
L 225.853506 122.84568 
L 227.141818 118.627557 
L 228.43013 127.206466 
L 229.718442 134.417291 
L 231.006753 136.695762 
L 232.295065 134.065642 
L 234.871688 106.42991 
L 236.16 121.320738 
L 237.448312 111.651001 
L 238.736623 115.458894 
L 240.024935 102.285339 
L 241.313247 102.577999 
L 242.601558 109.147534 
L 243.88987 113.804128 
L 245.178182 113.205368 
L 246.466494 121.665865 
L 247.754805 128.936918 
L 250.331429 115.129613 
L 251.61974 109.400718 
L 252.908052 102.789757 
L 254.196364 110.627986 
L 255.484675 119.350875 
L 256.772987 109.388468 
L 258.061299 112.817467 
L 259.34961 115.655979 
L 260.637922 122.616978 
L 261.926234 116.264017 
L 263.214545 120.703617 
L 264.502857 103.897287 
L 265.791169 93.762677 
L 267.079481 93.806739 
L 268.367792 90.589044 
L 269.656104 91.294649 
L 270.944416 83.703757 
L 272.232727 85.815469 
L 273.521039 92.079876 
L 274.809351 84.392542 
L 276.097662 87.798285 
L 277.385974 85.127061 
L 278.674286 99.312188 
L 279.962597 103.550994 
L 281.250909 96.88151 
L 282.539221 108.337806 
L 283.827532 107.304808 
L 285.115844 108.811322 
L 286.404156 103.255119 
L 287.692468 102.174082 
L 288.980779 100.789361 
L 290.269091 90.686279 
L 291.557403 98.283277 
L 292.845714 121.391054 
L 294.134026 122.961928 
L 295.422338 129.223019 
L 296.710649 122.574665 
L 297.998961 137.08482 
L 299.287273 137.192462 
L 300.575584 117.642955 
L 301.863896 126.450943 
L 303.152208 118.547453 
L 304.440519 134.395598 
L 305.728831 129.259931 
L 307.017143 127.144573 
L 308.305455 125.285655 
L 309.593766 129.596391 
L 310.882078 127.049101 
L 312.17039 138.741841 
L 313.458701 128.366936 
L 314.747013 119.851662 
L 316.035325 123.42572 
L 317.323636 117.414921 
L 318.611948 114.07497 
L 319.90026 113.214924 
L 322.476883 129.319904 
L 323.765195 122.823822 
L 325.053506 139.779286 
L 326.341818 134.435358 
L 327.63013 148.986317 
L 328.918442 135.959439 
L 330.206753 152.747477 
L 331.495065 153.053511 
L 332.783377 135.085008 
L 334.071688 136.181242 
L 335.36 115.407641 
L 336.648312 117.940819 
L 337.936623 141.244523 
L 339.224935 155.569282 
L 340.513247 140.635846 
L 341.801558 136.480113 
L 343.08987 133.967109 
L 344.378182 127.09183 
L 345.666494 122.829769 
L 346.954805 125.850741 
L 348.243117 138.073513 
L 349.531429 139.512821 
L 350.81974 145.709065 
L 352.108052 145.099842 
L 353.396364 141.943962 
L 354.684675 142.173348 
L 355.972987 154.611049 
L 357.261299 159.803159 
L 358.54961 170.765593 
L 359.837922 154.078026 
L 361.126234 145.713091 
L 362.414545 139.332746 
L 363.702857 144.63774 
L 364.991169 183.644505 
L 366.279481 176.370211 
L 367.567792 177.736477 
L 368.856104 172.534718 
L 370.144416 179.798723 
L 371.432727 159.719579 
L 372.721039 170.4896 
L 375.297662 198.46528 
L 376.585974 209.418461 
L 377.874286 210.574246 
L 379.162597 193.566036 
L 380.450909 189.036531 
L 381.739221 184.003416 
L 383.027532 184.463109 
L 384.315844 193.162532 
L 385.604156 198.193516 
L 386.892468 196.343579 
L 388.180779 190.700262 
L 389.469091 173.314551 
L 390.757403 176.883842 
L 392.045714 174.278513 
L 393.334026 171.151364 
L 394.622338 161.239225 
L 395.910649 181.004704 
L 397.198961 186.698796 
L 398.487273 189.144307 
L 398.487273 189.144307 
" clip-path="url(#pcfa674bc0a)" style="fill: none; stroke: #2ca02c; stroke-opacity: 0.6; stroke-width: 1.5; stroke-linecap: square"/>
   </g>
   <g id="line2d_32">
    <path d="M 73.832727 161.529139 
L 75.121039 166.518744 
L 76.409351 153.2847 
L 77.697662 161.91949 
L 78.985974 169.089046 
L 80.274286 159.308784 
L 81.562597 150.836038 
L 82.850909 157.528501 
L 84.139221 157.454047 
L 85.427532 149.096897 
L 86.715844 154.796049 
L 88.004156 153.736767 
L 89.292468 155.46286 
L 90.580779 152.118542 
L 91.869091 141.912348 
L 93.157403 133.882574 
L 94.445714 131.637253 
L 95.734026 146.00516 
L 97.022338 150.797627 
L 98.310649 142.079908 
L 99.598961 144.437391 
L 100.887273 129.532454 
L 102.175584 119.55168 
L 103.463896 130.324554 
L 104.752208 119.861476 
L 106.040519 112.740359 
L 107.328831 95.162046 
L 108.617143 82.489535 
L 109.905455 95.517156 
L 111.193766 84.329325 
L 112.482078 82.992165 
L 113.77039 73.50072 
L 115.058701 90.105643 
L 116.347013 93.572707 
L 117.635325 86.935591 
L 118.923636 87.534343 
L 120.211948 87.310612 
L 122.788571 112.332087 
L 124.076883 114.741475 
L 125.365195 108.138224 
L 126.653506 120.379515 
L 127.941818 106.779034 
L 129.23013 126.460972 
L 130.518442 128.559871 
L 133.095065 138.649897 
L 134.383377 129.319867 
L 135.671688 116.170197 
L 136.96 112.190217 
L 138.248312 117.852355 
L 139.536623 109.552716 
L 140.824935 113.623609 
L 142.113247 124.4311 
L 143.401558 113.43832 
L 144.68987 109.61466 
L 145.978182 115.035053 
L 147.266494 114.205694 
L 148.554805 102.292236 
L 149.843117 89.238943 
L 151.131429 77.658948 
L 152.41974 71.077893 
L 153.708052 78.297676 
L 154.996364 62.195405 
L 156.284675 69.772009 
L 157.572987 66.128692 
L 158.861299 76.829026 
L 160.14961 80.763132 
L 161.437922 88.463365 
L 162.726234 88.877598 
L 164.014545 88.360335 
L 165.302857 101.760405 
L 166.591169 105.707003 
L 167.879481 110.914622 
L 169.167792 120.129282 
L 170.456104 130.436098 
L 171.744416 126.23283 
L 173.032727 111.040479 
L 175.609351 90.638204 
L 176.897662 86.656904 
L 178.185974 95.388632 
L 180.762597 106.129657 
L 182.050909 110.569502 
L 183.339221 102.717782 
L 184.627532 111.286953 
L 185.915844 110.490073 
L 187.204156 95.942336 
L 188.492468 87.545876 
L 191.069091 104.489875 
L 192.357403 137.029579 
L 193.645714 145.408261 
L 194.934026 135.775946 
L 196.222338 143.466968 
L 197.510649 136.911216 
L 198.798961 151.630355 
L 200.087273 153.26607 
L 201.375584 150.997177 
L 202.663896 149.308851 
L 203.952208 128.85013 
L 205.240519 129.940367 
L 206.528831 132.266297 
L 207.817143 140.553658 
L 209.105455 141.454768 
L 210.393766 168.759864 
L 211.682078 181.076218 
L 212.97039 183.525646 
L 214.258701 176.513674 
L 215.547013 176.813704 
L 216.835325 169.262559 
L 218.123636 167.888649 
L 219.411948 179.892585 
L 220.70026 184.944201 
L 221.988571 184.311506 
L 223.276883 181.620603 
L 224.565195 168.31715 
L 225.853506 191.34503 
L 227.141818 185.954125 
L 228.43013 182.834235 
L 229.718442 185.042334 
L 231.006753 173.362779 
L 232.295065 168.508694 
L 233.583377 168.919349 
L 234.871688 167.902694 
L 236.16 167.462588 
L 237.448312 166.614262 
L 240.024935 196.832491 
L 241.313247 194.785823 
L 242.601558 181.726372 
L 243.88987 178.972362 
L 245.178182 164.441934 
L 246.466494 166.23522 
L 249.043117 205.293061 
L 250.331429 215.062664 
L 251.61974 214.479084 
L 252.908052 210.237304 
L 254.196364 221.892005 
L 255.484675 204.239576 
L 256.772987 202.830962 
L 258.061299 187.50956 
L 259.34961 195.074144 
L 260.637922 199.989352 
L 261.926234 199.404334 
L 263.214545 189.001719 
L 264.502857 188.330806 
L 265.791169 190.498032 
L 267.079481 175.721886 
L 268.367792 165.162207 
L 269.656104 165.571774 
L 270.944416 171.033608 
L 272.232727 188.232718 
L 273.521039 202.374018 
L 274.809351 208.54864 
L 276.097662 208.448851 
L 277.385974 202.600656 
L 278.674286 195.396474 
L 279.962597 194.924255 
L 281.250909 183.050957 
L 282.539221 192.916686 
L 283.827532 195.304571 
L 285.115844 199.585218 
L 286.404156 187.419028 
L 288.980779 165.296745 
L 290.269091 169.938018 
L 291.557403 148.439018 
L 292.845714 139.141716 
L 294.134026 127.915312 
L 295.422338 128.883186 
L 296.710649 108.171158 
L 297.998961 124.920406 
L 299.287273 112.078576 
L 300.575584 103.752286 
L 301.863896 130.084772 
L 303.152208 145.910683 
L 304.440519 155.38529 
L 305.728831 154.316531 
L 307.017143 159.34325 
L 308.305455 173.494635 
L 309.593766 175.572738 
L 310.882078 165.826288 
L 312.17039 162.279869 
L 313.458701 169.38384 
L 314.747013 170.718112 
L 316.035325 178.929119 
L 317.323636 160.701229 
L 318.611948 170.780045 
L 319.90026 184.767075 
L 321.188571 170.26373 
L 322.476883 171.661618 
L 323.765195 164.023138 
L 325.053506 159.87471 
L 326.341818 181.295326 
L 327.63013 179.756292 
L 328.918442 162.603133 
L 330.206753 155.282521 
L 331.495065 153.590267 
L 332.783377 162.854032 
L 334.071688 182.533347 
L 335.36 171.462887 
L 336.648312 156.087416 
L 337.936623 144.923057 
L 339.224935 155.005192 
L 340.513247 160.632669 
L 341.801558 146.654373 
L 343.08987 130.745168 
L 344.378182 134.4816 
L 345.666494 126.491287 
L 346.954805 135.540363 
L 348.243117 141.201598 
L 349.531429 134.558556 
L 350.81974 121.72519 
L 352.108052 118.832192 
L 353.396364 130.382278 
L 354.684675 122.319694 
L 355.972987 123.618992 
L 357.261299 129.178219 
L 358.54961 135.519059 
L 361.126234 170.75719 
L 362.414545 166.690001 
L 363.702857 168.691984 
L 364.991169 165.356138 
L 366.279481 147.098447 
L 367.567792 161.723324 
L 368.856104 149.354648 
L 370.144416 152.868772 
L 371.432727 157.500409 
L 372.721039 163.901087 
L 374.009351 166.428049 
L 376.585974 188.857452 
L 377.874286 196.016473 
L 379.162597 197.068526 
L 380.450909 181.758644 
L 381.739221 190.947635 
L 383.027532 205.045295 
L 384.315844 202.211608 
L 385.604156 206.283181 
L 386.892468 194.401028 
L 388.180779 189.709304 
L 389.469091 187.072076 
L 390.757403 180.522215 
L 392.045714 175.700503 
L 393.334026 179.078973 
L 394.622338 174.95021 
L 395.910649 195.026805 
L 397.198961 190.235471 
L 398.487273 189.914407 
L 398.487273 189.914407 
" clip-path="url(#pcfa674bc0a)" style="fill: none; stroke: #d62728; stroke-opacity: 0.6; stroke-width: 1.5; stroke-linecap: square"/>
   </g>
   <g id="line2d_33">
    <path d="M 73.832727 161.529139 
L 75.121039 155.556051 
L 76.409351 168.644482 
L 77.697662 167.441922 
L 78.985974 171.694687 
L 80.274286 184.589343 
L 81.562597 179.681761 
L 82.850909 170.707998 
L 84.139221 175.071511 
L 85.427532 170.613808 
L 86.715844 176.162872 
L 88.004156 161.492784 
L 89.292468 156.859229 
L 90.580779 145.705942 
L 91.869091 148.809958 
L 93.157403 150.365714 
L 94.445714 151.191317 
L 95.734026 143.403811 
L 97.022338 141.365492 
L 98.310649 136.285631 
L 99.598961 137.17185 
L 100.887273 116.183639 
L 102.175584 119.663992 
L 103.463896 117.302197 
L 104.752208 112.775524 
L 106.040519 114.717226 
L 107.328831 122.767848 
L 108.617143 111.626932 
L 109.905455 104.102033 
L 111.193766 98.999036 
L 112.482078 100.353902 
L 113.77039 99.808247 
L 115.058701 97.850636 
L 116.347013 111.069155 
L 117.635325 116.898553 
L 118.923636 119.436937 
L 120.211948 111.22916 
L 121.50026 125.624055 
L 122.788571 127.345957 
L 124.076883 141.021376 
L 125.365195 147.476438 
L 126.653506 148.860286 
L 129.23013 131.688866 
L 130.518442 138.392323 
L 131.806753 130.636568 
L 133.095065 107.003516 
L 134.383377 112.017373 
L 135.671688 121.739073 
L 136.96 118.226048 
L 138.248312 119.488803 
L 139.536623 111.60561 
L 140.824935 115.272558 
L 142.113247 111.491971 
L 143.401558 117.724588 
L 144.68987 117.251467 
L 147.266494 94.275302 
L 148.554805 95.440269 
L 149.843117 86.501559 
L 151.131429 95.029304 
L 152.41974 96.20088 
L 153.708052 123.026757 
L 154.996364 133.591858 
L 156.284675 142.860761 
L 157.572987 144.466031 
L 158.861299 153.880485 
L 160.14961 146.459136 
L 161.437922 136.128721 
L 164.014545 153.811286 
L 165.302857 171.271308 
L 166.591169 172.047022 
L 167.879481 174.673771 
L 169.167792 180.141447 
L 170.456104 164.494253 
L 171.744416 160.438014 
L 173.032727 143.665624 
L 174.321039 149.615809 
L 175.609351 149.165146 
L 176.897662 167.685302 
L 178.185974 162.755554 
L 179.474286 182.232537 
L 180.762597 182.171253 
L 182.050909 180.936318 
L 183.339221 181.714469 
L 184.627532 181.656574 
L 185.915844 187.175702 
L 187.204156 187.504871 
L 188.492468 181.643026 
L 189.780779 186.769545 
L 191.069091 184.702372 
L 192.357403 197.381521 
L 193.645714 193.914498 
L 194.934026 193.6709 
L 196.222338 201.03032 
L 197.510649 221.118344 
L 198.798961 211.233943 
L 200.087273 220.231046 
L 201.375584 217.461086 
L 202.663896 205.153101 
L 203.952208 223.101585 
L 205.240519 224.072635 
L 206.528831 227.526914 
L 207.817143 235.616814 
L 209.105455 240.201297 
L 210.393766 242.207817 
L 211.682078 241.289359 
L 212.97039 236.377803 
L 214.258701 251.194078 
L 215.547013 241.617202 
L 216.835325 247.672441 
L 218.123636 250.617539 
L 219.411948 261.141736 
L 220.70026 266.512684 
L 221.988571 295.488 
L 223.276883 274.396836 
L 224.565195 277.51839 
L 225.853506 273.796182 
L 227.141818 260.603498 
L 228.43013 250.091646 
L 229.718442 251.235983 
L 231.006753 253.411869 
L 232.295065 266.245979 
L 233.583377 269.179313 
L 236.16 249.751746 
L 237.448312 244.935236 
L 238.736623 231.170177 
L 240.024935 236.362469 
L 241.313247 227.033209 
L 242.601558 251.120117 
L 243.88987 264.123215 
L 245.178182 263.767828 
L 246.466494 259.701008 
L 247.754805 256.44214 
L 249.043117 253.886316 
L 250.331429 257.903165 
L 251.61974 251.577242 
L 252.908052 248.678926 
L 255.484675 257.479642 
L 256.772987 257.447561 
L 258.061299 252.974757 
L 259.34961 234.948531 
L 260.637922 242.173034 
L 261.926234 243.519685 
L 263.214545 236.251306 
L 264.502857 221.640477 
L 265.791169 223.280798 
L 267.079481 213.816007 
L 268.367792 202.709432 
L 269.656104 202.820635 
L 270.944416 193.259193 
L 272.232727 199.354367 
L 273.521039 211.534142 
L 274.809351 216.0438 
L 276.097662 209.639311 
L 277.385974 224.835572 
L 278.674286 232.284089 
L 279.962597 225.360684 
L 281.250909 221.868543 
L 282.539221 223.10384 
L 283.827532 239.688087 
L 285.115844 246.36922 
L 286.404156 252.449748 
L 287.692468 249.569846 
L 288.980779 231.287296 
L 290.269091 222.673513 
L 291.557403 226.037626 
L 292.845714 225.623843 
L 294.134026 225.86554 
L 295.422338 228.956543 
L 296.710649 223.559201 
L 297.998961 224.334422 
L 299.287273 216.7018 
L 300.575584 240.365626 
L 301.863896 248.311179 
L 303.152208 258.516986 
L 304.440519 240.23705 
L 305.728831 225.021513 
L 307.017143 229.209573 
L 308.305455 213.182222 
L 309.593766 216.810139 
L 310.882078 220.835214 
L 312.17039 233.801635 
L 313.458701 226.88034 
L 314.747013 225.093763 
L 316.035325 215.870058 
L 317.323636 220.555779 
L 318.611948 218.255612 
L 319.90026 214.707417 
L 321.188571 213.826847 
L 322.476883 211.200136 
L 323.765195 203.498796 
L 325.053506 192.607548 
L 326.341818 194.528553 
L 327.63013 213.246217 
L 328.918442 220.340598 
L 330.206753 209.001223 
L 331.495065 203.493899 
L 332.783377 200.432544 
L 334.071688 209.495947 
L 335.36 203.056649 
L 336.648312 211.444777 
L 337.936623 203.293296 
L 339.224935 206.795259 
L 340.513247 191.969304 
L 341.801558 208.077501 
L 343.08987 205.069641 
L 344.378182 216.558585 
L 345.666494 222.767528 
L 346.954805 226.51437 
L 348.243117 218.871434 
L 349.531429 208.431604 
L 350.81974 192.137121 
L 352.108052 206.923872 
L 353.396364 207.378754 
L 354.684675 199.992293 
L 355.972987 195.753695 
L 357.261299 192.895675 
L 358.54961 200.82666 
L 359.837922 202.020125 
L 361.126234 208.550034 
L 362.414545 216.161876 
L 363.702857 211.839148 
L 364.991169 200.234781 
L 366.279481 183.435678 
L 367.567792 177.002658 
L 368.856104 179.017755 
L 370.144416 189.211527 
L 371.432727 210.425806 
L 372.721039 193.253368 
L 374.009351 189.986761 
L 375.297662 188.05925 
L 377.874286 206.834945 
L 379.162597 208.739613 
L 380.450909 204.906291 
L 381.739221 212.301636 
L 383.027532 209.766473 
L 384.315844 224.716151 
L 385.604156 249.669793 
L 386.892468 233.180996 
L 388.180779 229.882771 
L 389.469091 242.271065 
L 390.757403 232.930516 
L 392.045714 233.378418 
L 394.622338 223.548904 
L 395.910649 209.489167 
L 397.198961 219.746656 
L 398.487273 202.318175 
L 398.487273 202.318175 
" clip-path="url(#pcfa674bc0a)" style="fill: none; stroke: #9467bd; stroke-opacity: 0.6; stroke-width: 1.5; stroke-linecap: square"/>
   </g>
   <g id="patch_3">
    <path d="M 57.6 307.584 
L 57.6 41.472 
" style="fill: none; stroke: #000000; stroke-width: 0.8; stroke-linejoin: miter; stroke-linecap: square"/>
   </g>
   <g id="patch_4">
    <path d="M 414.72 307.584 
L 414.72 41.472 
" style="fill: none; stroke: #000000; stroke-width: 0.8; stroke-linejoin: miter; stroke-linecap: square"/>
   </g>
   <g id="patch_5">
    <path d="M 57.6 307.584 
L 414.72 307.584 
" style="fill: none; stroke: #000000; stroke-width: 0.8; stroke-linejoin: miter; stroke-linecap: square"/>
   </g>
   <g id="patch_6">
    <path d="M 57.6 41.472 
L 414.72 41.472 
" style="fill: none; stroke: #000000; stroke-width: 0.8; stroke-linejoin: miter; stroke-linecap: square"/>
   </g>
   <g id="text_17">
    <!-- Simulated Volatility Paths -->
    <g transform="translate(159.810937 35.472) scale(0.12 -0.12)">
     <defs>
      <path id="DejaVuSans-53" d="M 3425 4513 
L 3425 3897 
Q 3066 4069 2747 4153 
Q 2428 4238 2131 4238 
Q 1616 4238 1336 4038 
Q 1056 3838 1056 3469 
Q 1056 3159 1242 3001 
Q 1428 2844 1947 2747 
L 2328 2669 
Q 3034 2534 3370 2195 
Q 3706 1856 3706 1288 
Q 3706 609 3251 259 
Q 2797 -91 1919 -91 
Q 1588 -91 1214 -16 
Q 841 59 441 206 
L 441 856 
Q 825 641 1194 531 
Q 1563 422 1919 422 
Q 2459 422 2753 634 
Q 3047 847 3047 1241 
Q 3047 1584 2836 1778 
Q 2625 1972 2144 2069 
L 1759 2144 
Q 1053 2284 737 2584 
Q 422 2884 422 3419 
Q 422 4038 858 4394 
Q 1294 4750 2059 4750 
Q 2388 4750 2728 4690 
Q 3069 4631 3425 4513 
z
" transform="scale(0.015625)"/>
      <path id="DejaVuSans-75" d="M 544 1381 
L 544 3500 
L 1119 3500 
L 1119 1403 
Q 1119 906 1312 657 
Q 1506 409 1894 409 
Q 2359 409 2629 706 
Q 2900 1003 2900 1516 
L 2900 3500 
L 3475 3500 
L 3475 0 
L 2900 0 
L 2900 538 
Q 2691 219 2414 64 
Q 2138 -91 1772 -91 
Q 1169 -91 856 284 
Q 544 659 544 1381 
z
M 1991 3584 
L 1991 3584 
z
" transform="scale(0.015625)"/>
      <path id="DejaVuSans-64" d="M 2906 2969 
L 2906 4863 
L 3481 4863 
L 3481 0 
L 2906 0 
L 2906 525 
Q 2725 213 2448 61 
Q 2172 -91 1784 -91 
Q 1150 -91 751 415 
Q 353 922 353 1747 
Q 353 2572 751 3078 
Q 1150 3584 1784 3584 
Q 2172 3584 2448 3432 
Q 2725 3281 2906 2969 
z
M 947 1747 
Q 947 1113 1208 752 
Q 1469 391 1925 391 
Q 2381 391 2643 752 
Q 2906 1113 2906 1747 
Q 2906 2381 2643 2742 
Q 2381 3103 1925 3103 
Q 1469 3103 1208 2742 
Q 947 2381 947 1747 
z
" transform="scale(0.015625)"/>
      <path id="DejaVuSans-20" transform="scale(0.015625)"/>
      <path id="DejaVuSans-50" d="M 1259 4147 
L 1259 2394 
L 2053 2394 
Q 2494 2394 2734 2622 
Q 2975 2850 2975 3272 
Q 2975 3691 2734 3919 
Q 2494 4147 2053 4147 
L 1259 4147 
z
M 628 4666 
L 2053 4666 
Q 2838 4666 3239 4311 
Q 3641 3956 3641 3272 
Q 3641 2581 3239 2228 
Q 2838 1875 2053 1875 
L 1259 1875 
L 1259 0 
L 628 0 
L 628 4666 
z
" transform="scale(0.015625)"/>
      <path id="DejaVuSans-68" d="M 3513 2113 
L 3513 0 
L 2938 0 
L 2938 2094 
Q 2938 2591 2744 2837 
Q 2550 3084 2163 3084 
Q 1697 3084 1428 2787 
Q 1159 2491 1159 1978 
L 1159 0 
L 581 0 
L 581 4863 
L 1159 4863 
L 1159 2956 
Q 1366 3272 1645 3428 
Q 1925 3584 2291 3584 
Q 2894 3584 3203 3211 
Q 3513 2838 3513 2113 
z
" transform="scale(0.015625)"/>
      <path id="DejaVuSans-73" d="M 2834 3397 
L 2834 2853 
Q 2591 2978 2328 3040 
Q 2066 3103 1784 3103 
Q 1356 3103 1142 2972 
Q 928 2841 928 2578 
Q 928 2378 1081 2264 
Q 1234 2150 1697 2047 
L 1894 2003 
Q 2506 1872 2764 1633 
Q 3022 1394 3022 966 
Q 3022 478 2636 193 
Q 2250 -91 1575 -91 
Q 1294 -91 989 -36 
Q 684 19 347 128 
L 347 722 
Q 666 556 975 473 
Q 1284 391 1588 391 
Q 1994 391 2212 530 
Q 2431 669 2431 922 
Q 2431 1156 2273 1281 
Q 2116 1406 1581 1522 
L 1381 1569 
Q 847 1681 609 1914 
Q 372 2147 372 2553 
Q 372 3047 722 3315 
Q 1072 3584 1716 3584 
Q 2034 3584 2315 3537 
Q 2597 3491 2834 3397 
z
" transform="scale(0.015625)"/>
     </defs>
     <use xlink:href="#DejaVuSans-53"/>
     <use xlink:href="#DejaVuSans-69" transform="translate(63.476562 0)"/>
     <use xlink:href="#DejaVuSans-6d" transform="translate(91.259766 0)"/>
     <use xlink:href="#DejaVuSans-75" transform="translate(188.671875 0)"/>
     <use xlink:href="#DejaVuSans-6c" transform="translate(252.050781 0)"/>
     <use xlink:href="#DejaVuSans-61" transform="translate(279.833984 0)"/>
     <use xlink:href="#DejaVuSans-74" transform="translate(341.113281 0)"/>
     <use xlink:href="#DejaVuSans-65" transform="translate(380.322266 0)"/>
     <use xlink:href="#DejaVuSans-64" transform="translate(441.845703 0)"/>
     <use xlink:href="#DejaVuSans-20" transform="translate(505.322266 0)"/>
     <use xlink:href="#DejaVuSans-56" transform="translate(537.109375 0)"/>
     <use xlink:href="#DejaVuSans-6f" transform="translate(597.767578 0)"/>
     <use xlink:href="#DejaVuSans-6c" transform="translate(658.949219 0)"/>
     <use xlink:href="#DejaVuSans-61" transform="translate(686.732422 0)"/>
     <use xlink:href="#DejaVuSans-74" transform="translate(748.011719 0)"/>
     <use xlink:href="#DejaVuSans-69" transform="translate(787.220703 0)"/>
     <use xlink:href="#DejaVuSans-6c" transform="translate(815.003906 0)"/>
     <use xlink:href="#DejaVuSans-69" transform="translate(842.787109 0)"/>
     <use xlink:href="#DejaVuSans-74" transform="translate(870.570312 0)"/>
     <use xlink:href="#DejaVuSans-79" transform="translate(909.779297 0)"/>
     <use xlink:href="#DejaVuSans-20" transform="translate(968.958984 0)"/>
     <use xlink:href="#DejaVuSans-50" transform="translate(1000.746094 0)"/>
     <use xlink:href="#DejaVuSans-61" transform="translate(1056.548828 0)"/>
     <use xlink:href="#DejaVuSans-74" transform="translate(1117.828125 0)"/>
     <use xlink:href="#DejaVuSans-68" transform="translate(1157.037109 0)"/>
     <use xlink:href="#DejaVuSans-73" transform="translate(1220.416016 0)"/>
    </g>
   </g>
  </g>
 </g>
 <defs>
  <clipPath id="pcfa674bc0a">
   <rect x="57.6" y="41.472" width="357.12" height="266.112"/>
  </clipPath>
 </defs>
</svg>
