<?xml version="1.0" encoding="utf-8" standalone="no"?>
<!DOCTYPE svg PUBLIC "-//W3C//DTD SVG 1.1//EN"
  "http://www.w3.org/Graphics/SVG/1.1/DTD/svg11.dtd">
<svg xmlns:xlink="http://www.w3.org/1999/xlink" width="460.8pt" height="345.6pt" viewBox="0 0 460.8 345.6" xmlns="http://www.w3.org/2000/svg" version="1.1">
 <metadata>
  <rdf:RDF xmlns:dc="http://purl.org/dc/elements/1.1/" xmlns:cc="http://creativecommons.org/ns#" xmlns:rdf="http://www.w3.org/1999/02/22-rdf-syntax-ns#">
   <cc:Work>
    <dc:type rdf:resource="http://purl.org/dc/dcmitype/StillImage"/>
    <dc:date>2025-12-28T10:33:31.028921</dc:date>
    <dc:format>image/svg+xml</dc:format>
    <dc:creator>
     <cc:Agent>
      <dc:title>Matplotlib v3.10.8, https://matplotlib.org/</dc:title>
     </cc:Agent>
    </dc:creator>
   </cc:Work>
  </rdf:RDF>
 </metadata>
 <defs>
  <style type="text/css">*{stroke-linejoin: round; stroke-linecap: butt}</style>
 </defs>
 <g id="figure_1">
  <g id="patch_1">
   <path d="M 0 345.6 
L 460.8 345.6 
L 460.8 0 
L 0 0 
z
" style="fill: #ffffff"/>
  </g>
  <g id="axes_1">
   <g id="patch_2">
    <path d="M 57.6 307.584 
L 414.72 307.584 
L 414.72 41.472 
L 57.6 41.472 
z
" style="fill: #ffffff"/>
   </g>
   <g id="FillBetweenPolyCollection_1"/>
   <g id="FillBetweenPolyCollection_2"/>
   <g id="FillBetweenPolyCollection_3"/>
   <g id="FillBetweenPolyCollection_4"/>
   <g id="FillBetweenPolyCollection_5"/>
   <g id="matplotlib.axis_1">
    <g id="xtick_1">
     <g id="line2d_1">
      <path d="M 73.832727 307.584 
L 73.832727 41.472 
" clip-path="url(#p981da06b9a)" style="fill: none; stroke: #b0b0b0; stroke-opacity: 0.3; stroke-width: 0.8; stroke-linecap: square"/>
     </g>
     <g id="line2d_2">
      <defs>
       <path id="m271b15e44f" d="M 0 0 
L 0 3.5 
" style="stroke: #000000; stroke-width: 0.8"/>
      </defs>
      <g>
       <use xlink:href="#m271b15e44f" x="73.832727" y="307.584" style="stroke: #000000; stroke-width: 0.8"/>
      </g>
     </g>
     <g id="text_1">
      <!-- 0.0 -->
      <g transform="translate(65.881165 322.182437) scale(0.1 -0.1)">
       <defs>
        <path id="DejaVuSans-30" d="M 2034 4250 
Q 1547 4250 1301 3770 
Q 1056 3291 1056 2328 
Q 1056 1369 1301 889 
Q 1547 409 2034 409 
Q 2525 409 2770 889 
Q 3016 1369 3016 2328 
Q 3016 3291 2770 3770 
Q 2525 4250 2034 4250 
z
M 2034 4750 
Q 2819 4750 3233 4129 
Q 3647 3509 3647 2328 
Q 3647 1150 3233 529 
Q 2819 -91 2034 -91 
Q 1250 -91 836 529 
Q 422 1150 422 2328 
Q 422 3509 836 4129 
Q 1250 4750 2034 4750 
z
" transform="scale(0.015625)"/>
        <path id="DejaVuSans-2e" d="M 684 794 
L 1344 794 
L 1344 0 
L 684 0 
L 684 794 
z
" transform="scale(0.015625)"/>
       </defs>
       <use xlink:href="#DejaVuSans-30"/>
       <use xlink:href="#DejaVuSans-2e" transform="translate(63.623047 0)"/>
       <use xlink:href="#DejaVuSans-30" transform="translate(95.410156 0)"/>
      </g>
     </g>
    </g>
    <g id="xtick_2">
     <g id="line2d_3">
      <path d="M 138.763636 307.584 
L 138.763636 41.472 
" clip-path="url(#p981da06b9a)" style="fill: none; stroke: #b0b0b0; stroke-opacity: 0.3; stroke-width: 0.8; stroke-linecap: square"/>
     </g>
     <g id="line2d_4">
      <g>
       <use xlink:href="#m271b15e44f" x="138.763636" y="307.584" style="stroke: #000000; stroke-width: 0.8"/>
      </g>
     </g>
     <g id="text_2">
      <!-- 0.2 -->
      <g transform="translate(130.812074 322.182437) scale(0.1 -0.1)">
       <defs>
        <path id="DejaVuSans-32" d="M 1228 531 
L 3431 531 
L 3431 0 
L 469 0 
L 469 531 
Q 828 903 1448 1529 
Q 2069 2156 2228 2338 
Q 2531 2678 2651 2914 
Q 2772 3150 2772 3378 
Q 2772 3750 2511 3984 
Q 2250 4219 1831 4219 
Q 1534 4219 1204 4116 
Q 875 4013 500 3803 
L 500 4441 
Q 881 4594 1212 4672 
Q 1544 4750 1819 4750 
Q 2544 4750 2975 4387 
Q 3406 4025 3406 3419 
Q 3406 3131 3298 2873 
Q 3191 2616 2906 2266 
Q 2828 2175 2409 1742 
Q 1991 1309 1228 531 
z
" transform="scale(0.015625)"/>
       </defs>
       <use xlink:href="#DejaVuSans-30"/>
       <use xlink:href="#DejaVuSans-2e" transform="translate(63.623047 0)"/>
       <use xlink:href="#DejaVuSans-32" transform="translate(95.410156 0)"/>
      </g>
     </g>
    </g>
    <g id="xtick_3">
     <g id="line2d_5">
      <path d="M 203.694545 307.584 
L 203.694545 41.472 
" clip-path="url(#p981da06b9a)" style="fill: none; stroke: #b0b0b0; stroke-opacity: 0.3; stroke-width: 0.8; stroke-linecap: square"/>
     </g>
     <g id="line2d_6">
      <g>
       <use xlink:href="#m271b15e44f" x="203.694545" y="307.584" style="stroke: #000000; stroke-width: 0.8"/>
      </g>
     </g>
     <g id="text_3">
      <!-- 0.4 -->
      <g transform="translate(195.742983 322.182437) scale(0.1 -0.1)">
       <defs>
        <path id="DejaVuSans-34" d="M 2419 4116 
L 825 1625 
L 2419 1625 
L 2419 4116 
z
M 2253 4666 
L 3047 4666 
L 3047 1625 
L 3713 1625 
L 3713 1100 
L 3047 1100 
L 3047 0 
L 2419 0 
L 2419 1100 
L 313 1100 
L 313 1709 
L 2253 4666 
z
" transform="scale(0.015625)"/>
       </defs>
       <use xlink:href="#DejaVuSans-30"/>
       <use xlink:href="#DejaVuSans-2e" transform="translate(63.623047 0)"/>
       <use xlink:href="#DejaVuSans-34" transform="translate(95.410156 0)"/>
      </g>
     </g>
    </g>
    <g id="xtick_4">
     <g id="line2d_7">
      <path d="M 268.625455 307.584 
L 268.625455 41.472 
" clip-path="url(#p981da06b9a)" style="fill: none; stroke: #b0b0b0; stroke-opacity: 0.3; stroke-width: 0.8; stroke-linecap: square"/>
     </g>
     <g id="line2d_8">
      <g>
       <use xlink:href="#m271b15e44f" x="268.625455" y="307.584" style="stroke: #000000; stroke-width: 0.8"/>
      </g>
     </g>
     <g id="text_4">
      <!-- 0.6 -->
      <g transform="translate(260.673892 322.182437) scale(0.1 -0.1)">
       <defs>
        <path id="DejaVuSans-36" d="M 2113 2584 
Q 1688 2584 1439 2293 
Q 1191 2003 1191 1497 
Q 1191 994 1439 701 
Q 1688 409 2113 409 
Q 2538 409 2786 701 
Q 3034 994 3034 1497 
Q 3034 2003 2786 2293 
Q 2538 2584 2113 2584 
z
M 3366 4563 
L 3366 3988 
Q 3128 4100 2886 4159 
Q 2644 4219 2406 4219 
Q 1781 4219 1451 3797 
Q 1122 3375 1075 2522 
Q 1259 2794 1537 2939 
Q 1816 3084 2150 3084 
Q 2853 3084 3261 2657 
Q 3669 2231 3669 1497 
Q 3669 778 3244 343 
Q 2819 -91 2113 -91 
Q 1303 -91 875 529 
Q 447 1150 447 2328 
Q 447 3434 972 4092 
Q 1497 4750 2381 4750 
Q 2619 4750 2861 4703 
Q 3103 4656 3366 4563 
z
" transform="scale(0.015625)"/>
       </defs>
       <use xlink:href="#DejaVuSans-30"/>
       <use xlink:href="#DejaVuSans-2e" transform="translate(63.623047 0)"/>
       <use xlink:href="#DejaVuSans-36" transform="translate(95.410156 0)"/>
      </g>
     </g>
    </g>
    <g id="xtick_5">
     <g id="line2d_9">
      <path d="M 333.556364 307.584 
L 333.556364 41.472 
" clip-path="url(#p981da06b9a)" style="fill: none; stroke: #b0b0b0; stroke-opacity: 0.3; stroke-width: 0.8; stroke-linecap: square"/>
     </g>
     <g id="line2d_10">
      <g>
       <use xlink:href="#m271b15e44f" x="333.556364" y="307.584" style="stroke: #000000; stroke-width: 0.8"/>
      </g>
     </g>
     <g id="text_5">
      <!-- 0.8 -->
      <g transform="translate(325.604801 322.182437) scale(0.1 -0.1)">
       <defs>
        <path id="DejaVuSans-38" d="M 2034 2216 
Q 1584 2216 1326 1975 
Q 1069 1734 1069 1313 
Q 1069 891 1326 650 
Q 1584 409 2034 409 
Q 2484 409 2743 651 
Q 3003 894 3003 1313 
Q 3003 1734 2745 1975 
Q 2488 2216 2034 2216 
z
M 1403 2484 
Q 997 2584 770 2862 
Q 544 3141 544 3541 
Q 544 4100 942 4425 
Q 1341 4750 2034 4750 
Q 2731 4750 3128 4425 
Q 3525 4100 3525 3541 
Q 3525 3141 3298 2862 
Q 3072 2584 2669 2484 
Q 3125 2378 3379 2068 
Q 3634 1759 3634 1313 
Q 3634 634 3220 271 
Q 2806 -91 2034 -91 
Q 1263 -91 848 271 
Q 434 634 434 1313 
Q 434 1759 690 2068 
Q 947 2378 1403 2484 
z
M 1172 3481 
Q 1172 3119 1398 2916 
Q 1625 2713 2034 2713 
Q 2441 2713 2670 2916 
Q 2900 3119 2900 3481 
Q 2900 3844 2670 4047 
Q 2441 4250 2034 4250 
Q 1625 4250 1398 4047 
Q 1172 3844 1172 3481 
z
" transform="scale(0.015625)"/>
       </defs>
       <use xlink:href="#DejaVuSans-30"/>
       <use xlink:href="#DejaVuSans-2e" transform="translate(63.623047 0)"/>
       <use xlink:href="#DejaVuSans-38" transform="translate(95.410156 0)"/>
      </g>
     </g>
    </g>
    <g id="xtick_6">
     <g id="line2d_11">
      <path d="M 398.487273 307.584 
L 398.487273 41.472 
" clip-path="url(#p981da06b9a)" style="fill: none; stroke: #b0b0b0; stroke-opacity: 0.3; stroke-width: 0.8; stroke-linecap: square"/>
     </g>
     <g id="line2d_12">
      <g>
       <use xlink:href="#m271b15e44f" x="398.487273" y="307.584" style="stroke: #000000; stroke-width: 0.8"/>
      </g>
     </g>
     <g id="text_6">
      <!-- 1.0 -->
      <g transform="translate(390.53571 322.182437) scale(0.1 -0.1)">
       <defs>
        <path id="DejaVuSans-31" d="M 794 531 
L 1825 531 
L 1825 4091 
L 703 3866 
L 703 4441 
L 1819 4666 
L 2450 4666 
L 2450 531 
L 3481 531 
L 3481 0 
L 794 0 
L 794 531 
z
" transform="scale(0.015625)"/>
       </defs>
       <use xlink:href="#DejaVuSans-31"/>
       <use xlink:href="#DejaVuSans-2e" transform="translate(63.623047 0)"/>
       <use xlink:href="#DejaVuSans-30" transform="translate(95.410156 0)"/>
      </g>
     </g>
    </g>
    <g id="text_7">
     <!-- Time -->
     <g transform="translate(223.926406 335.860562) scale(0.1 -0.1)">
      <defs>
       <path id="DejaVuSans-54" d="M -19 4666 
L 3928 4666 
L 3928 4134 
L 2272 4134 
L 2272 0 
L 1638 0 
L 1638 4134 
L -19 4134 
L -19 4666 
z
" transform="scale(0.015625)"/>
       <path id="DejaVuSans-69" d="M 603 3500 
L 1178 3500 
L 1178 0 
L 603 0 
L 603 3500 
z
M 603 4863 
L 1178 4863 
L 1178 4134 
L 603 4134 
L 603 4863 
z
" transform="scale(0.015625)"/>
       <path id="DejaVuSans-6d" d="M 3328 2828 
Q 3544 3216 3844 3400 
Q 4144 3584 4550 3584 
Q 5097 3584 5394 3201 
Q 5691 2819 5691 2113 
L 5691 0 
L 5113 0 
L 5113 2094 
Q 5113 2597 4934 2840 
Q 4756 3084 4391 3084 
Q 3944 3084 3684 2787 
Q 3425 2491 3425 1978 
L 3425 0 
L 2847 0 
L 2847 2094 
Q 2847 2600 2669 2842 
Q 2491 3084 2119 3084 
Q 1678 3084 1418 2786 
Q 1159 2488 1159 1978 
L 1159 0 
L 581 0 
L 581 3500 
L 1159 3500 
L 1159 2956 
Q 1356 3278 1631 3431 
Q 1906 3584 2284 3584 
Q 2666 3584 2933 3390 
Q 3200 3197 3328 2828 
z
" transform="scale(0.015625)"/>
       <path id="DejaVuSans-65" d="M 3597 1894 
L 3597 1613 
L 953 1613 
Q 991 1019 1311 708 
Q 1631 397 2203 397 
Q 2534 397 2845 478 
Q 3156 559 3463 722 
L 3463 178 
Q 3153 47 2828 -22 
Q 2503 -91 2169 -91 
Q 1331 -91 842 396 
Q 353 884 353 1716 
Q 353 2575 817 3079 
Q 1281 3584 2069 3584 
Q 2775 3584 3186 3129 
Q 3597 2675 3597 1894 
z
M 3022 2063 
Q 3016 2534 2758 2815 
Q 2500 3097 2075 3097 
Q 1594 3097 1305 2825 
Q 1016 2553 972 2059 
L 3022 2063 
z
" transform="scale(0.015625)"/>
      </defs>
      <use xlink:href="#DejaVuSans-54"/>
      <use xlink:href="#DejaVuSans-69" transform="translate(57.958984 0)"/>
      <use xlink:href="#DejaVuSans-6d" transform="translate(85.742188 0)"/>
      <use xlink:href="#DejaVuSans-65" transform="translate(183.154297 0)"/>
     </g>
    </g>
   </g>
   <g id="matplotlib.axis_2">
    <g id="ytick_1">
     <g id="line2d_13">
      <path d="M 57.6 283.238942 
L 414.72 283.238942 
" clip-path="url(#p981da06b9a)" style="fill: none; stroke: #b0b0b0; stroke-opacity: 0.3; stroke-width: 0.8; stroke-linecap: square"/>
     </g>
     <g id="line2d_14">
      <defs>
       <path id="m468cab9483" d="M 0 0 
L -3.5 0 
" style="stroke: #000000; stroke-width: 0.8"/>
      </defs>
      <g>
       <use xlink:href="#m468cab9483" x="57.6" y="283.238942" style="stroke: #000000; stroke-width: 0.8"/>
      </g>
     </g>
     <g id="text_8">
      <!-- 0.8 -->
      <g transform="translate(34.696875 287.038161) scale(0.1 -0.1)">
       <use xlink:href="#DejaVuSans-30"/>
       <use xlink:href="#DejaVuSans-2e" transform="translate(63.623047 0)"/>
       <use xlink:href="#DejaVuSans-38" transform="translate(95.410156 0)"/>
      </g>
     </g>
    </g>
    <g id="ytick_2">
     <g id="line2d_15">
      <path d="M 57.6 249.146903 
L 414.72 249.146903 
" clip-path="url(#p981da06b9a)" style="fill: none; stroke: #b0b0b0; stroke-opacity: 0.3; stroke-width: 0.8; stroke-linecap: square"/>
     </g>
     <g id="line2d_16">
      <g>
       <use xlink:href="#m468cab9483" x="57.6" y="249.146903" style="stroke: #000000; stroke-width: 0.8"/>
      </g>
     </g>
     <g id="text_9">
      <!-- 1.0 -->
      <g transform="translate(34.696875 252.946122) scale(0.1 -0.1)">
       <use xlink:href="#DejaVuSans-31"/>
       <use xlink:href="#DejaVuSans-2e" transform="translate(63.623047 0)"/>
       <use xlink:href="#DejaVuSans-30" transform="translate(95.410156 0)"/>
      </g>
     </g>
    </g>
    <g id="ytick_3">
     <g id="line2d_17">
      <path d="M 57.6 215.054864 
L 414.72 215.054864 
" clip-path="url(#p981da06b9a)" style="fill: none; stroke: #b0b0b0; stroke-opacity: 0.3; stroke-width: 0.8; stroke-linecap: square"/>
     </g>
     <g id="line2d_18">
      <g>
       <use xlink:href="#m468cab9483" x="57.6" y="215.054864" style="stroke: #000000; stroke-width: 0.8"/>
      </g>
     </g>
     <g id="text_10">
      <!-- 1.2 -->
      <g transform="translate(34.696875 218.854083) scale(0.1 -0.1)">
       <use xlink:href="#DejaVuSans-31"/>
       <use xlink:href="#DejaVuSans-2e" transform="translate(63.623047 0)"/>
       <use xlink:href="#DejaVuSans-32" transform="translate(95.410156 0)"/>
      </g>
     </g>
    </g>
    <g id="ytick_4">
     <g id="line2d_19">
      <path d="M 57.6 180.962825 
L 414.72 180.962825 
" clip-path="url(#p981da06b9a)" style="fill: none; stroke: #b0b0b0; stroke-opacity: 0.3; stroke-width: 0.8; stroke-linecap: square"/>
     </g>
     <g id="line2d_20">
      <g>
       <use xlink:href="#m468cab9483" x="57.6" y="180.962825" style="stroke: #000000; stroke-width: 0.8"/>
      </g>
     </g>
     <g id="text_11">
      <!-- 1.4 -->
      <g transform="translate(34.696875 184.762044) scale(0.1 -0.1)">
       <use xlink:href="#DejaVuSans-31"/>
       <use xlink:href="#DejaVuSans-2e" transform="translate(63.623047 0)"/>
       <use xlink:href="#DejaVuSans-34" transform="translate(95.410156 0)"/>
      </g>
     </g>
    </g>
    <g id="ytick_5">
     <g id="line2d_21">
      <path d="M 57.6 146.870786 
L 414.72 146.870786 
" clip-path="url(#p981da06b9a)" style="fill: none; stroke: #b0b0b0; stroke-opacity: 0.3; stroke-width: 0.8; stroke-linecap: square"/>
     </g>
     <g id="line2d_22">
      <g>
       <use xlink:href="#m468cab9483" x="57.6" y="146.870786" style="stroke: #000000; stroke-width: 0.8"/>
      </g>
     </g>
     <g id="text_12">
      <!-- 1.6 -->
      <g transform="translate(34.696875 150.670005) scale(0.1 -0.1)">
       <use xlink:href="#DejaVuSans-31"/>
       <use xlink:href="#DejaVuSans-2e" transform="translate(63.623047 0)"/>
       <use xlink:href="#DejaVuSans-36" transform="translate(95.410156 0)"/>
      </g>
     </g>
    </g>
    <g id="ytick_6">
     <g id="line2d_23">
      <path d="M 57.6 112.778747 
L 414.72 112.778747 
" clip-path="url(#p981da06b9a)" style="fill: none; stroke: #b0b0b0; stroke-opacity: 0.3; stroke-width: 0.8; stroke-linecap: square"/>
     </g>
     <g id="line2d_24">
      <g>
       <use xlink:href="#m468cab9483" x="57.6" y="112.778747" style="stroke: #000000; stroke-width: 0.8"/>
      </g>
     </g>
     <g id="text_13">
      <!-- 1.8 -->
      <g transform="translate(34.696875 116.577966) scale(0.1 -0.1)">
       <use xlink:href="#DejaVuSans-31"/>
       <use xlink:href="#DejaVuSans-2e" transform="translate(63.623047 0)"/>
       <use xlink:href="#DejaVuSans-38" transform="translate(95.410156 0)"/>
      </g>
     </g>
    </g>
    <g id="ytick_7">
     <g id="line2d_25">
      <path d="M 57.6 78.686708 
L 414.72 78.686708 
" clip-path="url(#p981da06b9a)" style="fill: none; stroke: #b0b0b0; stroke-opacity: 0.3; stroke-width: 0.8; stroke-linecap: square"/>
     </g>
     <g id="line2d_26">
      <g>
       <use xlink:href="#m468cab9483" x="57.6" y="78.686708" style="stroke: #000000; stroke-width: 0.8"/>
      </g>
     </g>
     <g id="text_14">
      <!-- 2.0 -->
      <g transform="translate(34.696875 82.485927) scale(0.1 -0.1)">
       <use xlink:href="#DejaVuSans-32"/>
       <use xlink:href="#DejaVuSans-2e" transform="translate(63.623047 0)"/>
       <use xlink:href="#DejaVuSans-30" transform="translate(95.410156 0)"/>
      </g>
     </g>
    </g>
    <g id="ytick_8">
     <g id="line2d_27">
      <path d="M 57.6 44.59467 
L 414.72 44.59467 
" clip-path="url(#p981da06b9a)" style="fill: none; stroke: #b0b0b0; stroke-opacity: 0.3; stroke-width: 0.8; stroke-linecap: square"/>
     </g>
     <g id="line2d_28">
      <g>
       <use xlink:href="#m468cab9483" x="57.6" y="44.59467" style="stroke: #000000; stroke-width: 0.8"/>
      </g>
     </g>
     <g id="text_15">
      <!-- 2.2 -->
      <g transform="translate(34.696875 48.393888) scale(0.1 -0.1)">
       <use xlink:href="#DejaVuSans-32"/>
       <use xlink:href="#DejaVuSans-2e" transform="translate(63.623047 0)"/>
       <use xlink:href="#DejaVuSans-32" transform="translate(95.410156 0)"/>
      </g>
     </g>
    </g>
    <g id="text_16">
     <!-- Spot Rate -->
     <g transform="translate(28.617187 198.947531) rotate(-90) scale(0.1 -0.1)">
      <defs>
       <path id="DejaVuSans-53" d="M 3425 4513 
L 3425 3897 
Q 3066 4069 2747 4153 
Q 2428 4238 2131 4238 
Q 1616 4238 1336 4038 
Q 1056 3838 1056 3469 
Q 1056 3159 1242 3001 
Q 1428 2844 1947 2747 
L 2328 2669 
Q 3034 2534 3370 2195 
Q 3706 1856 3706 1288 
Q 3706 609 3251 259 
Q 2797 -91 1919 -91 
Q 1588 -91 1214 -16 
Q 841 59 441 206 
L 441 856 
Q 825 641 1194 531 
Q 1563 422 1919 422 
Q 2459 422 2753 634 
Q 3047 847 3047 1241 
Q 3047 1584 2836 1778 
Q 2625 1972 2144 2069 
L 1759 2144 
Q 1053 2284 737 2584 
Q 422 2884 422 3419 
Q 422 4038 858 4394 
Q 1294 4750 2059 4750 
Q 2388 4750 2728 4690 
Q 3069 4631 3425 4513 
z
" transform="scale(0.015625)"/>
       <path id="DejaVuSans-70" d="M 1159 525 
L 1159 -1331 
L 581 -1331 
L 581 3500 
L 1159 3500 
L 1159 2969 
Q 1341 3281 1617 3432 
Q 1894 3584 2278 3584 
Q 2916 3584 3314 3078 
Q 3713 2572 3713 1747 
Q 3713 922 3314 415 
Q 2916 -91 2278 -91 
Q 1894 -91 1617 61 
Q 1341 213 1159 525 
z
M 3116 1747 
Q 3116 2381 2855 2742 
Q 2594 3103 2138 3103 
Q 1681 3103 1420 2742 
Q 1159 2381 1159 1747 
Q 1159 1113 1420 752 
Q 1681 391 2138 391 
Q 2594 391 2855 752 
Q 3116 1113 3116 1747 
z
" transform="scale(0.015625)"/>
       <path id="DejaVuSans-6f" d="M 1959 3097 
Q 1497 3097 1228 2736 
Q 959 2375 959 1747 
Q 959 1119 1226 758 
Q 1494 397 1959 397 
Q 2419 397 2687 759 
Q 2956 1122 2956 1747 
Q 2956 2369 2687 2733 
Q 2419 3097 1959 3097 
z
M 1959 3584 
Q 2709 3584 3137 3096 
Q 3566 2609 3566 1747 
Q 3566 888 3137 398 
Q 2709 -91 1959 -91 
Q 1206 -91 779 398 
Q 353 888 353 1747 
Q 353 2609 779 3096 
Q 1206 3584 1959 3584 
z
" transform="scale(0.015625)"/>
       <path id="DejaVuSans-74" d="M 1172 4494 
L 1172 3500 
L 2356 3500 
L 2356 3053 
L 1172 3053 
L 1172 1153 
Q 1172 725 1289 603 
Q 1406 481 1766 481 
L 2356 481 
L 2356 0 
L 1766 0 
Q 1100 0 847 248 
Q 594 497 594 1153 
L 594 3053 
L 172 3053 
L 172 3500 
L 594 3500 
L 594 4494 
L 1172 4494 
z
" transform="scale(0.015625)"/>
       <path id="DejaVuSans-20" transform="scale(0.015625)"/>
       <path id="DejaVuSans-52" d="M 2841 2188 
Q 3044 2119 3236 1894 
Q 3428 1669 3622 1275 
L 4263 0 
L 3584 0 
L 2988 1197 
Q 2756 1666 2539 1819 
Q 2322 1972 1947 1972 
L 1259 1972 
L 1259 0 
L 628 0 
L 628 4666 
L 2053 4666 
Q 2853 4666 3247 4331 
Q 3641 3997 3641 3322 
Q 3641 2881 3436 2590 
Q 3231 2300 2841 2188 
z
M 1259 4147 
L 1259 2491 
L 2053 2491 
Q 2509 2491 2742 2702 
Q 2975 2913 2975 3322 
Q 2975 3731 2742 3939 
Q 2509 4147 2053 4147 
L 1259 4147 
z
" transform="scale(0.015625)"/>
       <path id="DejaVuSans-61" d="M 2194 1759 
Q 1497 1759 1228 1600 
Q 959 1441 959 1056 
Q 959 750 1161 570 
Q 1363 391 1709 391 
Q 2188 391 2477 730 
Q 2766 1069 2766 1631 
L 2766 1759 
L 2194 1759 
z
M 3341 1997 
L 3341 0 
L 2766 0 
L 2766 531 
Q 2569 213 2275 61 
Q 1981 -91 1556 -91 
Q 1019 -91 701 211 
Q 384 513 384 1019 
Q 384 1609 779 1909 
Q 1175 2209 1959 2209 
L 2766 2209 
L 2766 2266 
Q 2766 2663 2505 2880 
Q 2244 3097 1772 3097 
Q 1472 3097 1187 3025 
Q 903 2953 641 2809 
L 641 3341 
Q 956 3463 1253 3523 
Q 1550 3584 1831 3584 
Q 2591 3584 2966 3190 
Q 3341 2797 3341 1997 
z
" transform="scale(0.015625)"/>
      </defs>
      <use xlink:href="#DejaVuSans-53"/>
      <use xlink:href="#DejaVuSans-70" transform="translate(63.476562 0)"/>
      <use xlink:href="#DejaVuSans-6f" transform="translate(126.953125 0)"/>
      <use xlink:href="#DejaVuSans-74" transform="translate(188.134766 0)"/>
      <use xlink:href="#DejaVuSans-20" transform="translate(227.34375 0)"/>
      <use xlink:href="#DejaVuSans-52" transform="translate(259.130859 0)"/>
      <use xlink:href="#DejaVuSans-61" transform="translate(326.363281 0)"/>
      <use xlink:href="#DejaVuSans-74" transform="translate(387.642578 0)"/>
      <use xlink:href="#DejaVuSans-65" transform="translate(426.851562 0)"/>
     </g>
    </g>
   </g>
   <g id="line2d_29">
    <path d="M 73.832727 223.180701 
L 75.121039 220.178647 
L 76.409351 224.631701 
L 77.697662 222.632313 
L 78.985974 234.272417 
L 80.274286 237.162919 
L 82.850909 236.253634 
L 84.139221 234.260525 
L 85.427532 230.391181 
L 86.715844 224.648323 
L 88.004156 218.051693 
L 89.292468 212.684933 
L 90.580779 214.136891 
L 91.869091 207.335707 
L 93.157403 209.159991 
L 95.734026 191.577217 
L 97.022338 203.601565 
L 98.310649 201.111661 
L 99.598961 194.778473 
L 100.887273 183.774175 
L 102.175584 187.91016 
L 104.752208 207.724937 
L 106.040519 206.169857 
L 107.328831 202.927868 
L 108.617143 203.868862 
L 109.905455 208.437876 
L 111.193766 201.301174 
L 112.482078 196.135368 
L 113.77039 204.883844 
L 115.058701 201.38623 
L 116.347013 194.047726 
L 117.635325 196.150279 
L 118.923636 196.519097 
L 120.211948 193.399434 
L 122.788571 192.531764 
L 124.076883 190.138874 
L 125.365195 187.18453 
L 126.653506 167.076874 
L 127.941818 158.11086 
L 129.23013 167.466363 
L 130.518442 166.494999 
L 131.806753 166.059566 
L 133.095065 172.706458 
L 134.383377 170.14009 
L 135.671688 175.796133 
L 136.96 177.591561 
L 138.248312 177.308697 
L 139.536623 182.549559 
L 140.824935 186.983725 
L 143.401558 194.077427 
L 144.68987 193.144748 
L 145.978182 185.991286 
L 148.554805 178.601622 
L 149.843117 175.946368 
L 151.131429 178.128165 
L 152.41974 168.674566 
L 153.708052 172.780225 
L 154.996364 172.122992 
L 156.284675 173.961877 
L 157.572987 172.525449 
L 158.861299 164.696702 
L 160.14961 151.262546 
L 161.437922 142.398147 
L 162.726234 141.754183 
L 164.014545 149.358555 
L 165.302857 150.785084 
L 166.591169 151.16291 
L 167.879481 152.958775 
L 169.167792 157.055556 
L 170.456104 155.45276 
L 171.744416 161.176467 
L 173.032727 161.518023 
L 174.321039 162.247677 
L 175.609351 167.392615 
L 176.897662 164.178178 
L 178.185974 160.008921 
L 179.474286 160.642413 
L 180.762597 154.697114 
L 182.050909 157.80307 
L 183.339221 160.328343 
L 184.627532 160.12002 
L 185.915844 161.334891 
L 187.204156 158.100893 
L 188.492468 165.346956 
L 189.780779 167.333532 
L 191.069091 156.934021 
L 192.357403 157.394182 
L 193.645714 157.687659 
L 196.222338 149.036056 
L 197.510649 140.713161 
L 198.798961 139.972615 
L 200.087273 135.873316 
L 201.375584 143.335402 
L 202.663896 131.449932 
L 203.952208 130.534026 
L 205.240519 130.631704 
L 206.528831 129.966721 
L 207.817143 124.920769 
L 210.393766 126.271091 
L 211.682078 128.735617 
L 214.258701 121.195351 
L 215.547013 123.381653 
L 216.835325 123.807982 
L 218.123636 114.160218 
L 219.411948 124.191343 
L 220.70026 124.578181 
L 221.988571 119.666787 
L 223.276883 123.976356 
L 224.565195 122.515772 
L 225.853506 123.491491 
L 227.141818 120.314849 
L 228.43013 126.700852 
L 229.718442 126.488721 
L 231.006753 115.913163 
L 232.295065 118.652328 
L 233.583377 111.191978 
L 234.871688 111.438268 
L 236.16 116.981521 
L 237.448312 118.358848 
L 240.024935 126.59632 
L 241.313247 124.001122 
L 242.601558 123.687731 
L 243.88987 111.884241 
L 245.178182 114.123685 
L 246.466494 113.520295 
L 247.754805 107.891914 
L 249.043117 98.970463 
L 250.331429 100.334943 
L 251.61974 103.696207 
L 252.908052 98.2493 
L 254.196364 97.598271 
L 255.484675 100.817288 
L 256.772987 108.572311 
L 258.061299 107.628701 
L 259.34961 105.583077 
L 260.637922 91.9836 
L 261.926234 90.43072 
L 263.214545 80.696418 
L 264.502857 76.96347 
L 265.791169 75.327236 
L 267.079481 70.731455 
L 268.367792 71.742217 
L 269.656104 83.815118 
L 270.944416 91.72569 
L 272.232727 77.988007 
L 273.521039 84.370272 
L 274.809351 62.13517 
L 276.097662 83.040051 
L 277.385974 86.98927 
L 278.674286 74.795075 
L 281.250909 83.400956 
L 282.539221 88.427041 
L 283.827532 87.29634 
L 285.115844 86.507503 
L 286.404156 92.1612 
L 287.692468 85.668334 
L 288.980779 81.210591 
L 290.269091 77.369699 
L 291.557403 87.892221 
L 292.845714 86.678094 
L 294.134026 90.220703 
L 295.422338 85.539779 
L 296.710649 84.879041 
L 297.998961 95.468223 
L 299.287273 99.159898 
L 300.575584 112.651909 
L 303.152208 119.151994 
L 304.440519 116.452179 
L 305.728831 102.23351 
L 307.017143 115.960206 
L 308.305455 114.999932 
L 309.593766 109.675472 
L 310.882078 118.334695 
L 312.17039 136.307638 
L 313.458701 137.403844 
L 314.747013 137.175957 
L 316.035325 137.434842 
L 317.323636 146.210269 
L 318.611948 152.458533 
L 321.188571 175.10061 
L 322.476883 178.967458 
L 323.765195 180.806788 
L 325.053506 177.465384 
L 326.341818 177.464066 
L 327.63013 172.678962 
L 328.918442 172.309523 
L 330.206753 176.05624 
L 332.783377 162.838368 
L 334.071688 175.004115 
L 335.36 172.779544 
L 336.648312 163.211028 
L 337.936623 157.257948 
L 339.224935 152.264036 
L 340.513247 156.988863 
L 341.801558 154.995691 
L 343.08987 148.749195 
L 344.378182 146.90413 
L 345.666494 162.370325 
L 346.954805 171.802037 
L 348.243117 173.579783 
L 349.531429 161.790138 
L 350.81974 161.536758 
L 352.108052 155.187146 
L 353.396364 161.374281 
L 354.684675 149.040637 
L 355.972987 139.229656 
L 357.261299 126.971255 
L 358.54961 124.446884 
L 359.837922 116.065371 
L 361.126234 114.57137 
L 362.414545 112.169935 
L 363.702857 103.635114 
L 364.991169 96.706374 
L 366.279481 85.220621 
L 367.567792 71.875211 
L 368.856104 82.658114 
L 370.144416 95.750876 
L 371.432727 85.298724 
L 372.721039 83.99215 
L 374.009351 77.545015 
L 375.297662 84.807917 
L 376.585974 79.143691 
L 377.874286 85.381583 
L 379.162597 82.572284 
L 380.450909 89.267527 
L 381.739221 76.723003 
L 383.027532 87.047722 
L 384.315844 87.238353 
L 385.604156 94.478557 
L 386.892468 92.412935 
L 388.180779 82.156474 
L 389.469091 74.924506 
L 390.757403 53.568 
L 392.045714 60.799379 
L 393.334026 66.545906 
L 394.622338 71.494686 
L 395.910649 64.438747 
L 397.198961 71.536188 
L 398.487273 57.440753 
L 398.487273 57.440753 
" clip-path="url(#p981da06b9a)" style="fill: none; stroke: #1f77b4; stroke-opacity: 0.6; stroke-width: 1.5; stroke-linecap: square"/>
   </g>
   <g id="line2d_30">
    <path d="M 73.832727 223.180701 
L 75.121039 224.127584 
L 76.409351 226.10858 
L 77.697662 224.507197 
L 78.985974 230.920433 
L 80.274286 225.187549 
L 81.562597 225.662583 
L 82.850909 222.304812 
L 84.139221 216.090076 
L 85.427532 217.788046 
L 86.715844 219.799703 
L 88.004156 225.892044 
L 89.292468 226.19019 
L 90.580779 224.428566 
L 91.869091 223.189774 
L 93.157403 226.959553 
L 94.445714 227.481219 
L 95.734026 231.811454 
L 97.022338 233.427452 
L 98.310649 224.431343 
L 99.598961 216.512485 
L 100.887273 217.142657 
L 102.175584 203.083664 
L 103.463896 208.224047 
L 104.752208 207.615759 
L 106.040519 200.953562 
L 107.328831 188.796105 
L 108.617143 189.910275 
L 109.905455 184.301012 
L 111.193766 184.650784 
L 112.482078 198.342912 
L 113.77039 194.556069 
L 115.058701 179.447307 
L 116.347013 179.236472 
L 118.923636 181.439338 
L 120.211948 185.375516 
L 121.50026 186.004371 
L 122.788571 178.833701 
L 124.076883 176.138515 
L 125.365195 171.790095 
L 126.653506 173.047679 
L 127.941818 161.82655 
L 129.23013 147.258706 
L 130.518442 148.131032 
L 131.806753 167.307875 
L 133.095065 177.418411 
L 134.383377 178.203732 
L 135.671688 162.773931 
L 136.96 163.248556 
L 138.248312 154.104693 
L 139.536623 160.516039 
L 140.824935 166.086529 
L 142.113247 164.993187 
L 143.401558 162.434249 
L 144.68987 163.391931 
L 145.978182 163.17462 
L 147.266494 166.756706 
L 148.554805 172.652627 
L 149.843117 175.543565 
L 151.131429 176.668594 
L 152.41974 177.311372 
L 153.708052 172.290059 
L 154.996364 166.067477 
L 156.284675 168.170369 
L 157.572987 165.100031 
L 158.861299 162.35331 
L 160.14961 170.165636 
L 161.437922 174.476876 
L 162.726234 174.524938 
L 164.014545 173.338613 
L 165.302857 172.539936 
L 166.591169 173.381438 
L 167.879481 168.97819 
L 169.167792 163.666643 
L 170.456104 160.549546 
L 171.744416 160.84886 
L 173.032727 163.08994 
L 174.321039 166.838103 
L 175.609351 164.163672 
L 176.897662 161.827333 
L 178.185974 159.18067 
L 179.474286 160.667922 
L 180.762597 155.650331 
L 182.050909 160.059088 
L 183.339221 156.18856 
L 184.627532 157.247536 
L 185.915844 150.661617 
L 187.204156 158.553479 
L 188.492468 160.849158 
L 189.780779 159.255673 
L 191.069091 158.111843 
L 192.357403 145.645754 
L 193.645714 153.52107 
L 194.934026 159.569389 
L 196.222338 164.947505 
L 198.798961 182.835898 
L 200.087273 174.34783 
L 201.375584 170.932871 
L 202.663896 178.456071 
L 203.952208 179.539018 
L 205.240519 182.754052 
L 206.528831 197.368946 
L 207.817143 191.508756 
L 209.105455 194.233448 
L 210.393766 195.708196 
L 211.682078 199.44375 
L 212.97039 201.419986 
L 214.258701 196.410007 
L 215.547013 199.784035 
L 216.835325 205.744854 
L 218.123636 219.885218 
L 219.411948 202.482381 
L 220.70026 205.752733 
L 221.988571 221.183032 
L 223.276883 227.125841 
L 224.565195 211.379763 
L 225.853506 211.312361 
L 227.141818 223.516228 
L 228.43013 224.972357 
L 229.718442 212.570828 
L 231.006753 212.185477 
L 232.295065 215.989106 
L 233.583377 210.788143 
L 234.871688 214.592904 
L 236.16 212.473713 
L 237.448312 218.891914 
L 238.736623 215.611073 
L 240.024935 203.142072 
L 241.313247 212.369201 
L 242.601558 202.495598 
L 243.88987 195.809285 
L 245.178182 200.495053 
L 246.466494 201.482523 
L 247.754805 195.567801 
L 249.043117 184.523547 
L 250.331429 180.084904 
L 251.61974 190.096751 
L 252.908052 180.787066 
L 254.196364 190.114878 
L 255.484675 190.846686 
L 256.772987 196.245447 
L 258.061299 193.842249 
L 259.34961 197.499937 
L 263.214545 186.619146 
L 264.502857 179.554088 
L 265.791169 178.477075 
L 267.079481 177.063026 
L 268.367792 176.830889 
L 269.656104 176.926208 
L 270.944416 174.517319 
L 272.232727 167.351413 
L 273.521039 167.434268 
L 274.809351 153.549943 
L 276.097662 135.227868 
L 277.385974 113.666484 
L 278.674286 132.680885 
L 279.962597 131.577064 
L 281.250909 138.249281 
L 282.539221 152.478701 
L 283.827532 164.83227 
L 285.115844 170.081358 
L 286.404156 170.353838 
L 287.692468 167.565605 
L 288.980779 172.823616 
L 290.269091 175.504279 
L 291.557403 166.507496 
L 292.845714 175.066588 
L 294.134026 178.735003 
L 295.422338 187.14933 
L 296.710649 178.033843 
L 297.998961 157.767119 
L 299.287273 148.225365 
L 300.575584 151.142858 
L 301.863896 151.944195 
L 303.152208 149.833889 
L 304.440519 148.172501 
L 305.728831 148.398002 
L 307.017143 148.079992 
L 308.305455 167.581921 
L 309.593766 158.479711 
L 310.882078 166.687751 
L 312.17039 173.771463 
L 313.458701 179.298628 
L 314.747013 186.929209 
L 316.035325 179.230356 
L 317.323636 162.467638 
L 318.611948 163.379644 
L 319.90026 175.933997 
L 321.188571 146.059312 
L 322.476883 147.890633 
L 323.765195 158.415571 
L 325.053506 157.28811 
L 326.341818 151.469648 
L 327.63013 181.361777 
L 328.918442 174.196993 
L 330.206753 181.035009 
L 331.495065 159.250424 
L 332.783377 164.479806 
L 334.071688 161.999636 
L 335.36 165.309748 
L 336.648312 185.591629 
L 337.936623 186.922596 
L 339.224935 188.761736 
L 340.513247 184.848322 
L 341.801558 184.055729 
L 343.08987 189.180878 
L 344.378182 203.528899 
L 346.954805 185.098527 
L 348.243117 195.760944 
L 349.531429 190.240184 
L 350.81974 181.742505 
L 352.108052 181.004393 
L 354.684675 164.945131 
L 355.972987 154.2692 
L 358.54961 172.347437 
L 359.837922 175.911994 
L 361.126234 173.897785 
L 362.414545 162.151941 
L 363.702857 180.370931 
L 364.991169 164.077226 
L 366.279481 170.296289 
L 367.567792 166.913928 
L 368.856104 174.328593 
L 370.144416 176.978544 
L 371.432727 177.439696 
L 372.721039 184.608228 
L 374.009351 191.100406 
L 375.297662 176.338875 
L 376.585974 182.77663 
L 377.874286 180.960137 
L 379.162597 174.444417 
L 380.450909 164.413755 
L 381.739221 168.974168 
L 383.027532 168.9736 
L 384.315844 166.888598 
L 385.604156 166.61556 
L 386.892468 149.964375 
L 388.180779 147.603767 
L 389.469091 154.186304 
L 390.757403 173.879545 
L 392.045714 169.907126 
L 393.334026 181.235634 
L 394.622338 170.429303 
L 395.910649 166.818442 
L 397.198961 154.767966 
L 398.487273 155.86377 
L 398.487273 155.86377 
" clip-path="url(#p981da06b9a)" style="fill: none; stroke: #ff7f0e; stroke-opacity: 0.6; stroke-width: 1.5; stroke-linecap: square"/>
   </g>
   <g id="line2d_31">
    <path d="M 73.832727 223.180701 
L 75.121039 219.228058 
L 76.409351 222.920199 
L 77.697662 229.071721 
L 78.985974 233.026046 
L 80.274286 234.35039 
L 81.562597 228.369236 
L 82.850909 226.312038 
L 84.139221 236.012742 
L 85.427532 236.544267 
L 86.715844 240.097075 
L 88.004156 236.872505 
L 89.292468 239.634451 
L 90.580779 235.451007 
L 91.869091 233.144195 
L 93.157403 230.322352 
L 94.445714 237.422434 
L 95.734026 227.288007 
L 97.022338 227.219358 
L 98.310649 238.231352 
L 99.598961 238.384415 
L 100.887273 247.545035 
L 102.175584 257.931701 
L 103.463896 257.479638 
L 104.752208 254.437475 
L 106.040519 254.532545 
L 107.328831 257.495086 
L 108.617143 257.151142 
L 109.905455 259.934337 
L 111.193766 257.542855 
L 112.482078 252.214909 
L 113.77039 253.244714 
L 115.058701 249.699886 
L 116.347013 253.13059 
L 117.635325 256.05463 
L 118.923636 252.386207 
L 120.211948 256.446706 
L 121.50026 257.833083 
L 122.788571 269.383309 
L 124.076883 264.248545 
L 125.365195 259.848262 
L 126.653506 269.550403 
L 129.23013 272.843278 
L 130.518442 271.381497 
L 131.806753 266.508361 
L 133.095065 264.139666 
L 134.383377 261.532486 
L 135.671688 252.586163 
L 136.96 247.581266 
L 138.248312 256.301687 
L 139.536623 252.421715 
L 140.824935 248.17321 
L 142.113247 249.114943 
L 143.401558 258.47037 
L 144.68987 259.833103 
L 145.978182 264.311621 
L 147.266494 263.290663 
L 148.554805 261.579997 
L 149.843117 254.337914 
L 151.131429 258.428268 
L 152.41974 262.964068 
L 153.708052 268.176861 
L 154.996364 267.020603 
L 156.284675 259.361904 
L 157.572987 250.156522 
L 158.861299 245.385638 
L 160.14961 239.00668 
L 161.437922 236.303486 
L 162.726234 241.978802 
L 164.014545 242.067494 
L 165.302857 241.497349 
L 166.591169 237.40784 
L 167.879481 229.240409 
L 169.167792 231.349763 
L 170.456104 235.027453 
L 171.744416 227.361905 
L 173.032727 211.834834 
L 174.321039 206.10693 
L 175.609351 204.100201 
L 176.897662 203.885274 
L 178.185974 200.408467 
L 179.474286 192.694599 
L 180.762597 178.615629 
L 182.050909 186.879649 
L 183.339221 185.579037 
L 184.627532 197.327693 
L 185.915844 199.068071 
L 187.204156 186.503948 
L 188.492468 182.335769 
L 189.780779 202.639205 
L 191.069091 219.790419 
L 192.357403 221.146414 
L 193.645714 217.408003 
L 194.934026 215.207064 
L 196.222338 212.737639 
L 197.510649 218.455774 
L 198.798961 223.643419 
L 200.087273 224.970684 
L 201.375584 221.611186 
L 202.663896 230.240852 
L 203.952208 221.37345 
L 205.240519 213.938289 
L 206.528831 215.041533 
L 207.817143 220.873918 
L 209.105455 205.984367 
L 210.393766 216.808674 
L 211.682078 202.76494 
L 212.97039 202.822292 
L 214.258701 203.60994 
L 215.547013 212.504364 
L 216.835325 202.79417 
L 218.123636 200.921991 
L 219.411948 189.901598 
L 220.70026 200.373098 
L 221.988571 205.192961 
L 223.276883 213.976882 
L 224.565195 217.760286 
L 225.853506 225.068004 
L 227.141818 215.242222 
L 228.43013 222.485567 
L 229.718442 220.681775 
L 231.006753 210.558261 
L 232.295065 210.942289 
L 233.583377 218.555059 
L 234.871688 224.377723 
L 236.16 227.470254 
L 237.448312 244.278029 
L 238.736623 236.953523 
L 240.024935 231.017846 
L 241.313247 235.838418 
L 242.601558 230.488397 
L 243.88987 230.669103 
L 245.178182 228.095094 
L 246.466494 219.643027 
L 247.754805 220.04936 
L 249.043117 232.24162 
L 250.331429 211.995266 
L 251.61974 213.346536 
L 252.908052 220.943561 
L 254.196364 214.402689 
L 256.772987 230.621963 
L 258.061299 236.227816 
L 259.34961 231.666393 
L 260.637922 226.293137 
L 261.926234 231.512913 
L 264.502857 247.679504 
L 265.791169 258.596869 
L 267.079481 259.453481 
L 268.367792 263.650134 
L 269.656104 268.521467 
L 270.944416 280.990331 
L 272.232727 290.702824 
L 273.521039 288.642231 
L 274.809351 285.91792 
L 276.097662 295.488 
L 277.385974 291.363247 
L 278.674286 289.44562 
L 279.962597 284.660504 
L 281.250909 275.809911 
L 282.539221 272.536202 
L 283.827532 270.364471 
L 285.115844 266.963269 
L 286.404156 268.467913 
L 287.692468 265.321899 
L 288.980779 275.216009 
L 290.269091 264.754866 
L 291.557403 270.684103 
L 292.845714 269.392124 
L 294.134026 278.474398 
L 295.422338 278.047645 
L 296.710649 285.971933 
L 297.998961 285.185554 
L 299.287273 283.013691 
L 300.575584 291.548808 
L 301.863896 290.547422 
L 303.152208 291.112137 
L 304.440519 287.70287 
L 307.017143 286.443379 
L 308.305455 274.388925 
L 309.593766 275.171457 
L 310.882078 280.073525 
L 312.17039 277.490374 
L 313.458701 283.693243 
L 314.747013 281.012982 
L 316.035325 283.63875 
L 317.323636 279.150429 
L 318.611948 277.921175 
L 319.90026 281.523517 
L 321.188571 279.912466 
L 322.476883 268.230064 
L 323.765195 267.690696 
L 325.053506 261.628227 
L 326.341818 252.652793 
L 327.63013 244.679969 
L 328.918442 248.645757 
L 330.206753 252.066883 
L 331.495065 251.660969 
L 332.783377 251.031931 
L 334.071688 258.050009 
L 335.36 266.78979 
L 336.648312 263.10504 
L 337.936623 257.291736 
L 339.224935 258.963818 
L 340.513247 251.251874 
L 341.801558 257.920541 
L 343.08987 253.359033 
L 344.378182 247.150468 
L 345.666494 250.621269 
L 346.954805 247.14411 
L 348.243117 244.41074 
L 349.531429 240.928281 
L 350.81974 250.841098 
L 352.108052 248.725046 
L 353.396364 250.860573 
L 354.684675 241.156394 
L 355.972987 232.854848 
L 357.261299 223.364695 
L 358.54961 228.829802 
L 359.837922 229.302451 
L 361.126234 234.352627 
L 362.414545 230.398071 
L 363.702857 227.639136 
L 364.991169 225.307736 
L 366.279481 227.009803 
L 367.567792 233.815348 
L 368.856104 236.389585 
L 370.144416 250.126781 
L 371.432727 247.105871 
L 372.721039 241.344867 
L 374.009351 254.31646 
L 375.297662 249.392109 
L 376.585974 241.271843 
L 377.874286 241.717511 
L 379.162597 241.375559 
L 380.450909 247.734682 
L 381.739221 251.173673 
L 383.027532 250.110466 
L 384.315844 246.908422 
L 385.604156 245.625891 
L 386.892468 249.291347 
L 388.180779 249.803166 
L 389.469091 246.689504 
L 390.757403 251.046175 
L 392.045714 240.845055 
L 393.334026 250.15631 
L 394.622338 255.778372 
L 395.910649 257.739051 
L 397.198961 256.350964 
L 398.487273 263.921697 
L 398.487273 263.921697 
" clip-path="url(#p981da06b9a)" style="fill: none; stroke: #2ca02c; stroke-opacity: 0.6; stroke-width: 1.5; stroke-linecap: square"/>
   </g>
   <g id="line2d_32">
    <path d="M 73.832727 223.180701 
L 75.121039 213.626612 
L 76.409351 213.021998 
L 77.697662 209.149742 
L 78.985974 208.257889 
L 80.274286 207.772063 
L 81.562597 197.269779 
L 82.850909 206.667924 
L 84.139221 194.512253 
L 85.427532 195.892262 
L 86.715844 188.874711 
L 88.004156 193.613489 
L 89.292468 192.48055 
L 91.869091 209.848154 
L 93.157403 217.274448 
L 94.445714 206.909011 
L 95.734026 200.173083 
L 97.022338 194.245944 
L 98.310649 195.744838 
L 99.598961 194.036991 
L 100.887273 204.712547 
L 102.175584 193.610104 
L 103.463896 194.433262 
L 104.752208 190.14319 
L 106.040519 199.368455 
L 107.328831 187.583198 
L 108.617143 185.860444 
L 109.905455 161.243211 
L 111.193766 160.006403 
L 112.482078 164.214263 
L 113.77039 167.72376 
L 115.058701 184.602748 
L 116.347013 193.526387 
L 117.635325 192.710188 
L 118.923636 206.051527 
L 120.211948 203.715113 
L 121.50026 216.933076 
L 122.788571 219.385287 
L 124.076883 223.541236 
L 125.365195 223.601882 
L 126.653506 219.595122 
L 129.23013 233.818093 
L 130.518442 241.610856 
L 131.806753 246.424045 
L 133.095065 248.017403 
L 134.383377 242.360092 
L 135.671688 242.286634 
L 136.96 244.735609 
L 138.248312 258.195347 
L 139.536623 255.654222 
L 140.824935 254.208261 
L 143.401558 238.122012 
L 144.68987 236.239462 
L 145.978182 239.157317 
L 147.266494 238.313242 
L 148.554805 231.729485 
L 149.843117 241.695646 
L 151.131429 244.325581 
L 152.41974 247.404843 
L 153.708052 242.790614 
L 154.996364 237.151235 
L 156.284675 237.402694 
L 157.572987 242.131442 
L 158.861299 254.621523 
L 160.14961 253.560572 
L 161.437922 249.439493 
L 162.726234 246.646241 
L 164.014545 244.353075 
L 165.302857 240.350794 
L 166.591169 242.244074 
L 167.879481 242.481874 
L 169.167792 245.881367 
L 170.456104 252.173159 
L 171.744416 251.742332 
L 173.032727 255.007774 
L 174.321039 259.824561 
L 175.609351 249.990216 
L 176.897662 249.231608 
L 178.185974 250.814351 
L 179.474286 248.886371 
L 180.762597 238.167413 
L 183.339221 239.39695 
L 184.627532 230.085292 
L 185.915844 222.184811 
L 187.204156 227.57994 
L 188.492468 245.484107 
L 189.780779 243.879992 
L 191.069091 244.822105 
L 192.357403 245.960995 
L 193.645714 244.958376 
L 194.934026 248.472837 
L 196.222338 253.259037 
L 197.510649 246.477751 
L 198.798961 249.912512 
L 200.087273 249.173136 
L 201.375584 247.886689 
L 202.663896 249.054889 
L 203.952208 247.996854 
L 205.240519 252.011914 
L 206.528831 241.931633 
L 207.817143 244.516282 
L 209.105455 244.225812 
L 210.393766 242.555864 
L 211.682078 248.122055 
L 212.97039 247.563497 
L 214.258701 248.119154 
L 215.547013 247.970198 
L 216.835325 247.327361 
L 218.123636 238.117282 
L 219.411948 238.150577 
L 220.70026 244.940409 
L 221.988571 234.529918 
L 223.276883 235.245919 
L 224.565195 238.918414 
L 225.853506 249.319336 
L 227.141818 252.119961 
L 228.43013 243.669473 
L 229.718442 251.757863 
L 231.006753 257.451978 
L 232.295065 261.180544 
L 233.583377 255.814316 
L 234.871688 247.294643 
L 236.16 246.974288 
L 237.448312 240.367113 
L 238.736623 234.675126 
L 240.024935 237.5634 
L 242.601558 239.534509 
L 243.88987 241.691816 
L 245.178182 240.444673 
L 246.466494 237.368327 
L 247.754805 237.14254 
L 249.043117 238.316919 
L 250.331429 241.166195 
L 251.61974 237.970502 
L 252.908052 241.507718 
L 254.196364 240.386852 
L 255.484675 242.239467 
L 256.772987 242.090712 
L 258.061299 245.497881 
L 259.34961 246.004487 
L 260.637922 257.232994 
L 261.926234 256.678779 
L 263.214545 256.680063 
L 264.502857 252.614017 
L 265.791169 254.317674 
L 267.079481 253.836387 
L 268.367792 252.520468 
L 269.656104 254.912754 
L 270.944416 254.900089 
L 272.232727 254.545983 
L 273.521039 251.303499 
L 274.809351 251.665652 
L 276.097662 247.274789 
L 277.385974 252.568178 
L 278.674286 249.108118 
L 279.962597 249.300935 
L 281.250909 246.036162 
L 282.539221 240.946931 
L 283.827532 229.456758 
L 285.115844 234.406754 
L 286.404156 224.751275 
L 287.692468 218.913797 
L 288.980779 207.4762 
L 290.269091 204.895313 
L 291.557403 210.024353 
L 292.845714 222.065443 
L 294.134026 211.04648 
L 295.422338 220.368275 
L 297.998961 223.499436 
L 299.287273 218.606449 
L 300.575584 226.673766 
L 301.863896 226.437468 
L 303.152208 220.874055 
L 304.440519 218.389718 
L 305.728831 212.108069 
L 307.017143 215.666825 
L 308.305455 211.43067 
L 309.593766 213.973712 
L 310.882078 219.72382 
L 312.17039 221.357101 
L 313.458701 226.384656 
L 314.747013 221.944245 
L 316.035325 223.41264 
L 317.323636 224.673188 
L 318.611948 216.322377 
L 319.90026 216.685945 
L 321.188571 219.585634 
L 322.476883 233.214217 
L 323.765195 228.01006 
L 325.053506 227.128555 
L 326.341818 220.443565 
L 327.63013 217.433367 
L 328.918442 209.950981 
L 330.206753 208.45474 
L 332.783377 228.184294 
L 334.071688 223.811978 
L 335.36 225.739832 
L 336.648312 223.215185 
L 337.936623 232.328212 
L 339.224935 222.707256 
L 340.513247 232.661758 
L 341.801558 234.508874 
L 343.08987 231.886434 
L 344.378182 235.787327 
L 345.666494 247.442724 
L 346.954805 254.820022 
L 348.243117 248.908479 
L 349.531429 256.890832 
L 350.81974 252.505956 
L 352.108052 249.0688 
L 353.396364 251.71947 
L 354.684675 257.383466 
L 355.972987 259.694859 
L 357.261299 264.296092 
L 358.54961 267.976491 
L 359.837922 264.008571 
L 361.126234 267.510596 
L 362.414545 262.616446 
L 363.702857 257.21739 
L 364.991169 249.278172 
L 366.279481 250.562691 
L 367.567792 255.36815 
L 368.856104 242.411646 
L 370.144416 233.27435 
L 371.432727 243.103185 
L 372.721039 244.523112 
L 374.009351 242.504549 
L 375.297662 234.126332 
L 376.585974 230.258222 
L 377.874286 233.244501 
L 379.162597 232.699466 
L 380.450909 235.458863 
L 381.739221 243.720439 
L 383.027532 241.247593 
L 384.315844 235.327907 
L 385.604156 233.10202 
L 386.892468 233.459853 
L 388.180779 242.026409 
L 389.469091 241.473032 
L 390.757403 238.116791 
L 392.045714 246.416109 
L 393.334026 250.403838 
L 394.622338 244.925157 
L 395.910649 253.029774 
L 397.198961 255.032298 
L 398.487273 253.422035 
L 398.487273 253.422035 
" clip-path="url(#p981da06b9a)" style="fill: none; stroke: #d62728; stroke-opacity: 0.6; stroke-width: 1.5; stroke-linecap: square"/>
   </g>
   <g id="line2d_33">
    <path d="M 73.832727 223.180701 
L 75.121039 224.717085 
L 76.409351 217.077063 
L 77.697662 226.087506 
L 78.985974 220.044497 
L 80.274286 215.831378 
L 81.562597 212.027798 
L 82.850909 213.198039 
L 84.139221 211.240993 
L 85.427532 208.184331 
L 86.715844 224.84961 
L 88.004156 226.762454 
L 89.292468 239.345933 
L 90.580779 238.849142 
L 91.869091 236.448803 
L 93.157403 229.409556 
L 94.445714 230.230885 
L 95.734026 235.934097 
L 97.022338 235.971475 
L 98.310649 236.739227 
L 99.598961 241.529717 
L 100.887273 243.808606 
L 102.175584 241.668349 
L 103.463896 238.570168 
L 104.752208 232.328764 
L 106.040519 223.446892 
L 107.328831 238.472921 
L 108.617143 222.259103 
L 109.905455 223.312606 
L 111.193766 211.851101 
L 112.482078 203.091569 
L 113.77039 196.151357 
L 115.058701 203.767894 
L 116.347013 217.2474 
L 117.635325 223.948827 
L 118.923636 209.914099 
L 120.211948 215.638855 
L 121.50026 219.030049 
L 122.788571 215.895515 
L 124.076883 228.679004 
L 125.365195 223.375783 
L 126.653506 223.909411 
L 127.941818 227.786865 
L 129.23013 225.592752 
L 130.518442 230.648449 
L 131.806753 221.723995 
L 133.095065 223.455774 
L 134.383377 214.225579 
L 135.671688 231.418978 
L 136.96 229.645423 
L 138.248312 234.308061 
L 139.536623 231.37801 
L 140.824935 239.835261 
L 142.113247 234.507392 
L 143.401558 241.300027 
L 144.68987 242.35889 
L 145.978182 241.161099 
L 147.266494 247.164102 
L 148.554805 248.384419 
L 149.843117 249.084494 
L 151.131429 248.834602 
L 152.41974 238.047601 
L 153.708052 245.037571 
L 154.996364 243.999596 
L 156.284675 247.569666 
L 157.572987 253.277475 
L 158.861299 268.663586 
L 160.14961 271.330479 
L 161.437922 269.937384 
L 162.726234 276.288865 
L 164.014545 272.522239 
L 165.302857 272.558716 
L 166.591169 268.25985 
L 167.879481 271.117793 
L 169.167792 265.261704 
L 170.456104 260.929252 
L 171.744416 252.328714 
L 173.032727 241.2341 
L 174.321039 251.683565 
L 175.609351 237.881071 
L 176.897662 231.984663 
L 178.185974 230.120482 
L 179.474286 237.414649 
L 180.762597 235.526746 
L 182.050909 237.320834 
L 183.339221 239.416322 
L 184.627532 247.657786 
L 185.915844 244.693012 
L 187.204156 253.17825 
L 188.492468 251.450393 
L 189.780779 263.818796 
L 191.069091 261.21731 
L 192.357403 259.608951 
L 193.645714 255.942322 
L 194.934026 258.2666 
L 196.222338 263.71037 
L 197.510649 260.284777 
L 198.798961 264.569345 
L 200.087273 259.316958 
L 201.375584 264.250341 
L 202.663896 264.959452 
L 203.952208 261.781425 
L 205.240519 265.086678 
L 206.528831 263.270745 
L 207.817143 265.783479 
L 209.105455 267.308815 
L 210.393766 267.121949 
L 211.682078 268.540916 
L 212.97039 264.694375 
L 214.258701 264.291453 
L 215.547013 261.243604 
L 216.835325 265.291785 
L 218.123636 262.308482 
L 219.411948 266.599208 
L 220.70026 265.161095 
L 223.276883 260.485224 
L 224.565195 259.820505 
L 225.853506 259.642685 
L 227.141818 258.953135 
L 228.43013 256.806021 
L 229.718442 255.42603 
L 231.006753 249.882045 
L 232.295065 249.410194 
L 233.583377 249.500786 
L 234.871688 249.354917 
L 236.16 252.078488 
L 237.448312 253.934669 
L 238.736623 253.290648 
L 240.024935 254.67138 
L 241.313247 256.655563 
L 242.601558 260.931023 
L 243.88987 260.045085 
L 245.178182 256.014128 
L 246.466494 250.555144 
L 247.754805 253.493704 
L 249.043117 257.464327 
L 250.331429 257.206896 
L 251.61974 256.623583 
L 252.908052 252.769948 
L 254.196364 249.27099 
L 255.484675 249.709258 
L 256.772987 246.02675 
L 258.061299 245.672434 
L 259.34961 245.618257 
L 261.926234 242.468233 
L 263.214545 243.041647 
L 264.502857 244.062531 
L 265.791169 243.339209 
L 267.079481 240.731549 
L 268.367792 250.343403 
L 269.656104 246.492185 
L 270.944416 247.203734 
L 272.232727 245.042198 
L 273.521039 245.186142 
L 274.809351 248.111844 
L 276.097662 247.608869 
L 277.385974 250.385269 
L 278.674286 247.421704 
L 279.962597 249.808253 
L 281.250909 252.566442 
L 282.539221 249.158663 
L 283.827532 247.317862 
L 285.115844 248.778871 
L 286.404156 247.041673 
L 287.692468 243.47026 
L 288.980779 243.400296 
L 290.269091 238.74069 
L 291.557403 237.19024 
L 292.845714 236.795079 
L 294.134026 233.682309 
L 295.422338 235.224835 
L 296.710649 237.969087 
L 297.998961 241.371839 
L 299.287273 239.158706 
L 300.575584 238.910434 
L 301.863896 241.184244 
L 303.152208 242.702966 
L 304.440519 239.596314 
L 305.728831 240.604478 
L 307.017143 239.877733 
L 308.305455 239.555659 
L 309.593766 239.865723 
L 310.882078 245.900584 
L 312.17039 241.241338 
L 313.458701 250.21886 
L 314.747013 248.865912 
L 316.035325 250.754338 
L 317.323636 246.032059 
L 318.611948 246.098761 
L 319.90026 242.09106 
L 321.188571 239.423521 
L 322.476883 243.544666 
L 323.765195 240.210042 
L 325.053506 238.896273 
L 327.63013 228.974537 
L 328.918442 228.849173 
L 330.206753 225.443654 
L 331.495065 221.545263 
L 332.783377 223.073811 
L 334.071688 229.733403 
L 335.36 233.092475 
L 336.648312 232.666046 
L 337.936623 231.746621 
L 339.224935 239.144557 
L 340.513247 242.811203 
L 341.801558 231.184523 
L 343.08987 234.467095 
L 344.378182 235.211071 
L 345.666494 236.597548 
L 346.954805 231.241112 
L 348.243117 229.544575 
L 350.81974 239.254169 
L 352.108052 241.523778 
L 353.396364 240.620715 
L 354.684675 244.282988 
L 355.972987 245.405159 
L 357.261299 244.652359 
L 358.54961 239.113632 
L 359.837922 239.072314 
L 361.126234 237.543272 
L 362.414545 236.452094 
L 363.702857 230.665188 
L 364.991169 234.016572 
L 366.279481 231.281924 
L 367.567792 239.516406 
L 368.856104 241.794589 
L 371.432727 229.175313 
L 372.721039 232.595441 
L 374.009351 232.016399 
L 375.297662 223.749961 
L 376.585974 230.775223 
L 377.874286 233.059526 
L 379.162597 231.983689 
L 380.450909 224.994373 
L 381.739221 231.584216 
L 383.027532 232.433705 
L 384.315844 233.639542 
L 385.604156 228.322641 
L 386.892468 226.928711 
L 388.180779 227.702749 
L 389.469091 224.011504 
L 390.757403 226.287746 
L 392.045714 227.691397 
L 393.334026 227.644625 
L 394.622338 227.319618 
L 395.910649 226.617615 
L 397.198961 227.47405 
L 398.487273 229.619873 
L 398.487273 229.619873 
" clip-path="url(#p981da06b9a)" style="fill: none; stroke: #9467bd; stroke-opacity: 0.6; stroke-width: 1.5; stroke-linecap: square"/>
   </g>
   <g id="patch_3">
    <path d="M 57.6 307.584 
L 57.6 41.472 
" style="fill: none; stroke: #000000; stroke-width: 0.8; stroke-linejoin: miter; stroke-linecap: square"/>
   </g>
   <g id="patch_4">
    <path d="M 414.72 307.584 
L 414.72 41.472 
" style="fill: none; stroke: #000000; stroke-width: 0.8; stroke-linejoin: miter; stroke-linecap: square"/>
   </g>
   <g id="patch_5">
    <path d="M 57.6 307.584 
L 414.72 307.584 
" style="fill: none; stroke: #000000; stroke-width: 0.8; stroke-linejoin: miter; stroke-linecap: square"/>
   </g>
   <g id="patch_6">
    <path d="M 57.6 41.472 
L 414.72 41.472 
" style="fill: none; stroke: #000000; stroke-width: 0.8; stroke-linejoin: miter; stroke-linecap: square"/>
   </g>
   <g id="text_17">
    <!-- Simulated Spot Paths -->
    <g transform="translate(172.08 35.472) scale(0.12 -0.12)">
     <defs>
      <path id="DejaVuSans-75" d="M 544 1381 
L 544 3500 
L 1119 3500 
L 1119 1403 
Q 1119 906 1312 657 
Q 1506 409 1894 409 
Q 2359 409 2629 706 
Q 2900 1003 2900 1516 
L 2900 3500 
L 3475 3500 
L 3475 0 
L 2900 0 
L 2900 538 
Q 2691 219 2414 64 
Q 2138 -91 1772 -91 
Q 1169 -91 856 284 
Q 544 659 544 1381 
z
M 1991 3584 
L 1991 3584 
z
" transform="scale(0.015625)"/>
      <path id="DejaVuSans-6c" d="M 603 4863 
L 1178 4863 
L 1178 0 
L 603 0 
L 603 4863 
z
" transform="scale(0.015625)"/>
      <path id="DejaVuSans-64" d="M 2906 2969 
L 2906 4863 
L 3481 4863 
L 3481 0 
L 2906 0 
L 2906 525 
Q 2725 213 2448 61 
Q 2172 -91 1784 -91 
Q 1150 -91 751 415 
Q 353 922 353 1747 
Q 353 2572 751 3078 
Q 1150 3584 1784 3584 
Q 2172 3584 2448 3432 
Q 2725 3281 2906 2969 
z
M 947 1747 
Q 947 1113 1208 752 
Q 1469 391 1925 391 
Q 2381 391 2643 752 
Q 2906 1113 2906 1747 
Q 2906 2381 2643 2742 
Q 2381 3103 1925 3103 
Q 1469 3103 1208 2742 
Q 947 2381 947 1747 
z
" transform="scale(0.015625)"/>
      <path id="DejaVuSans-50" d="M 1259 4147 
L 1259 2394 
L 2053 2394 
Q 2494 2394 2734 2622 
Q 2975 2850 2975 3272 
Q 2975 3691 2734 3919 
Q 2494 4147 2053 4147 
L 1259 4147 
z
M 628 4666 
L 2053 4666 
Q 2838 4666 3239 4311 
Q 3641 3956 3641 3272 
Q 3641 2581 3239 2228 
Q 2838 1875 2053 1875 
L 1259 1875 
L 1259 0 
L 628 0 
L 628 4666 
z
" transform="scale(0.015625)"/>
      <path id="DejaVuSans-68" d="M 3513 2113 
L 3513 0 
L 2938 0 
L 2938 2094 
Q 2938 2591 2744 2837 
Q 2550 3084 2163 3084 
Q 1697 3084 1428 2787 
Q 1159 2491 1159 1978 
L 1159 0 
L 581 0 
L 581 4863 
L 1159 4863 
L 1159 2956 
Q 1366 3272 1645 3428 
Q 1925 3584 2291 3584 
Q 2894 3584 3203 3211 
Q 3513 2838 3513 2113 
z
" transform="scale(0.015625)"/>
      <path id="DejaVuSans-73" d="M 2834 3397 
L 2834 2853 
Q 2591 2978 2328 3040 
Q 2066 3103 1784 3103 
Q 1356 3103 1142 2972 
Q 928 2841 928 2578 
Q 928 2378 1081 2264 
Q 1234 2150 1697 2047 
L 1894 2003 
Q 2506 1872 2764 1633 
Q 3022 1394 3022 966 
Q 3022 478 2636 193 
Q 2250 -91 1575 -91 
Q 1294 -91 989 -36 
Q 684 19 347 128 
L 347 722 
Q 666 556 975 473 
Q 1284 391 1588 391 
Q 1994 391 2212 530 
Q 2431 669 2431 922 
Q 2431 1156 2273 1281 
Q 2116 1406 1581 1522 
L 1381 1569 
Q 847 1681 609 1914 
Q 372 2147 372 2553 
Q 372 3047 722 3315 
Q 1072 3584 1716 3584 
Q 2034 3584 2315 3537 
Q 2597 3491 2834 3397 
z
" transform="scale(0.015625)"/>
     </defs>
     <use xlink:href="#DejaVuSans-53"/>
     <use xlink:href="#DejaVuSans-69" transform="translate(63.476562 0)"/>
     <use xlink:href="#DejaVuSans-6d" transform="translate(91.259766 0)"/>
     <use xlink:href="#DejaVuSans-75" transform="translate(188.671875 0)"/>
     <use xlink:href="#DejaVuSans-6c" transform="translate(252.050781 0)"/>
     <use xlink:href="#DejaVuSans-61" transform="translate(279.833984 0)"/>
     <use xlink:href="#DejaVuSans-74" transform="translate(341.113281 0)"/>
     <use xlink:href="#DejaVuSans-65" transform="translate(380.322266 0)"/>
     <use xlink:href="#DejaVuSans-64" transform="translate(441.845703 0)"/>
     <use xlink:href="#DejaVuSans-20" transform="translate(505.322266 0)"/>
     <use xlink:href="#DejaVuSans-53" transform="translate(537.109375 0)"/>
     <use xlink:href="#DejaVuSans-70" transform="translate(600.585938 0)"/>
     <use xlink:href="#DejaVuSans-6f" transform="translate(664.0625 0)"/>
     <use xlink:href="#DejaVuSans-74" transform="translate(725.244141 0)"/>
     <use xlink:href="#DejaVuSans-20" transform="translate(764.453125 0)"/>
     <use xlink:href="#DejaVuSans-50" transform="translate(796.240234 0)"/>
     <use xlink:href="#DejaVuSans-61" transform="translate(852.042969 0)"/>
     <use xlink:href="#DejaVuSans-74" transform="translate(913.322266 0)"/>
     <use xlink:href="#DejaVuSans-68" transform="translate(952.53125 0)"/>
     <use xlink:href="#DejaVuSans-73" transform="translate(1015.910156 0)"/>
    </g>
   </g>
  </g>
 </g>
 <defs>
  <clipPath id="p981da06b9a">
   <rect x="57.6" y="41.472" width="357.12" height="266.112"/>
  </clipPath>
 </defs>
</svg>
